<?xml version="1.0" encoding="utf-8"?>
<!-- Generator: Adobe Illustrator 18.0.0, SVG Export Plug-In . SVG Version: 6.00 Build 0)  -->
<!DOCTYPE svg PUBLIC "-//W3C//DTD SVG 1.1//EN" "http://www.w3.org/Graphics/SVG/1.1/DTD/svg11.dtd">
<svg version="1.1" id="Layer_1" xmlns="http://www.w3.org/2000/svg" xmlns:xlink="http://www.w3.org/1999/xlink" x="0px" y="0px"
	 width="1400px" height="980px" viewBox="0 0 1400 980" enable-background="new 0 0 1400 980" xml:space="preserve">
<g>
	<rect fill="#00A1A5" width="1400" height="980"/>
	<g>
		<g>
			<polygon fill="#D0D2D3" points="727.2,726.3 686,726.3 644.8,726.3 638.5,779.7 686,779.7 733.5,779.7 			"/>
		</g>
		<g>
			<path fill="#414042" d="M733.5,780.5h-95c-0.2,0-0.4-0.1-0.6-0.3c-0.2-0.2-0.2-0.4-0.2-0.6l6.3-53.4c0-0.4,0.4-0.7,0.8-0.7h82.4
				c0.4,0,0.7,0.3,0.8,0.7l6.3,53.4c0,0.2,0,0.5-0.2,0.6C733.9,780.4,733.7,780.5,733.5,780.5z M639.4,778.9h93.2l-6.1-51.8h-81
				L639.4,778.9z"/>
		</g>
		<g>
			<path fill="#F7B88D" d="M989.4,689h-11.1l2.9-8.3c0.9-2.6-0.6-5.4-3.3-6.1c-2.4-0.6-4.8,0.8-5.5,3.2l-3.3,11.2h-76.9
				c-8.8,0-15.9,7.1-15.9,15.9s7.1,15.9,15.9,15.9h97.2c8.8,0,15.9-7.1,15.9-15.9S998.2,689,989.4,689z"/>
		</g>
		<g>
			<path fill="#414042" d="M989.4,721.6h-97.2c-9.2,0-16.7-7.5-16.7-16.7s7.5-16.7,16.7-16.7h76.4l3.2-10.6c0.8-2.7,3.7-4.4,6.5-3.7
				c1.5,0.4,2.7,1.3,3.5,2.7c0.7,1.4,0.9,3,0.4,4.4l-2.5,7.2h9.9c9.2,0,16.7,7.5,16.7,16.7S998.6,721.6,989.4,721.6z M892.2,689.8
				c-8.3,0-15.1,6.8-15.1,15.1s6.8,15.1,15.1,15.1h97.2c8.3,0,15.1-6.8,15.1-15.1s-6.8-15.1-15.1-15.1h-11.1c-0.3,0-0.5-0.1-0.6-0.3
				c-0.1-0.2-0.2-0.5-0.1-0.7l2.9-8.3c0.4-1,0.3-2.2-0.3-3.1c-0.5-1-1.4-1.6-2.4-1.9c-1.9-0.5-4,0.7-4.6,2.6l-3.3,11.2
				c-0.1,0.3-0.4,0.6-0.8,0.6H892.2z"/>
		</g>
		<g>
			<rect x="978.4" y="613.1" fill="#B0CDE8" width="16.9" height="112.4"/>
		</g>
		<g>
			<rect x="802.2" y="682.7" fill="#517991" width="136.2" height="44.5"/>
		</g>
		<g>
			<path fill="#414042" d="M938.3,727.9H802.2c-0.4,0-0.8-0.4-0.8-0.8v-44.5c0-0.4,0.4-0.8,0.8-0.8h136.2c0.4,0,0.8,0.4,0.8,0.8
				v44.5C939.1,727.6,938.8,727.9,938.3,727.9z M803,726.3h134.6v-42.9H803V726.3z"/>
		</g>
		<g>
			<path fill="#E6E7E8" d="M860.9,498H511.1c-9.4,0-17,7.6-17,17v189.6h0h18.6h365V515C877.8,505.6,870.2,498,860.9,498z"/>
		</g>
		<g>
			<rect x="512.8" y="516.3" fill="#517991" width="346.3" height="179.4"/>
		</g>
		<g>
			<path fill="#E6E7E8" d="M494.2,704.6v15.5c0,9.4,7.6,17,17,17h349.7c9.4,0,17-7.6,17-17v-15.5H494.2z"/>
		</g>
		<g>
			<path fill="#414042" d="M877.8,705.3H494.2c-0.4,0-0.8-0.4-0.8-0.8V515c0-9.8,8-17.8,17.8-17.8h349.7c9.8,0,17.8,8,17.8,17.8
				v189.6C878.6,705,878.3,705.3,877.8,705.3z M495,703.8h382V515c0-8.9-7.3-16.2-16.2-16.2H511.1c-8.9,0-16.2,7.3-16.2,16.2V703.8z
				"/>
		</g>
		<g>
			<path fill="#414042" d="M859.2,696.4H512.8c-0.4,0-0.8-0.4-0.8-0.8V516.3c0-0.4,0.4-0.8,0.8-0.8h346.3c0.4,0,0.8,0.4,0.8,0.8
				v179.4C860,696.1,859.6,696.4,859.2,696.4z M513.6,694.9h344.8V517.1H513.6V694.9z"/>
		</g>
		<g>
			<path fill="#414042" d="M860.9,737.8H511.1c-9.8,0-17.8-8-17.8-17.8v-15.5c0-0.4,0.4-0.8,0.8-0.8h383.6c0.4,0,0.8,0.4,0.8,0.8
				v15.5C878.6,729.8,870.7,737.8,860.9,737.8z M495,705.3v14.7c0,8.9,7.3,16.2,16.2,16.2h349.7c8.9,0,16.2-7.3,16.2-16.2v-14.7H495
				z"/>
		</g>
		<g>
			<g>
				<path fill="#B0CDE8" d="M531.9,789.7H298.4c-2.3,0-4.1-1.8-4.1-4.1V611c0-2.3,1.8-4.1,4.1-4.1h233.5c2.3,0,4.1,1.8,4.1,4.1
					v174.6C536,787.9,534.1,789.7,531.9,789.7z"/>
			</g>
			<g>
				<path fill="#517991" d="M294.3,785.6c0,2.3,1.8,4.1,4.1,4.1h233.5c2.3,0,4.1-1.8,4.1-4.1V768H294.3V785.6z"/>
			</g>
			<g>
				<path fill="#414042" d="M531.9,790.5H298.4c-2.7,0-4.9-2.2-4.9-4.9V768c0-0.4,0.4-0.8,0.8-0.8H536c0.4,0,0.8,0.4,0.8,0.8v17.6
					C536.8,788.3,534.6,790.5,531.9,790.5z M295.1,768.8v16.8c0,1.8,1.5,3.3,3.3,3.3h233.5c1.8,0,3.3-1.5,3.3-3.3v-16.8H295.1z"/>
			</g>
			<g>
				<g>
					<rect x="302.5" y="772.6" fill="#EA5F57" width="4.2" height="12.5"/>
				</g>
				<g>
					<rect x="308.4" y="772.6" fill="#EA5F57" width="4.2" height="12.5"/>
				</g>
			</g>
			<g>
				<path fill="#385B6D" d="M524.9,781.7H324.6c-1.6,0-2.8-1.3-2.8-2.8l0,0c0-1.6,1.3-2.8,2.8-2.8h200.3c1.6,0,2.8,1.3,2.8,2.8l0,0
					C527.7,780.4,526.5,781.7,524.9,781.7z"/>
			</g>
			<g>
				<path fill="#EA5F57" d="M439.1,778.9c0-1.6-1.3-2.8-2.8-2.8H324.6c-1.6,0-2.8,1.3-2.8,2.8c0,1.6,1.3,2.8,2.8,2.8h111.7
					C437.9,781.7,439.1,780.4,439.1,778.9z"/>
			</g>
			<g>
				<path fill="#EA5F57" d="M394.5,650.5c-3.3-2.2-7.7,0.1-7.7,4.1v34.8v34.8c0,4,4.4,6.3,7.7,4.1l51.3-34.8c2.9-2,2.9-6.2,0-8.2
					L394.5,650.5z"/>
			</g>
			<g>
				<path fill="#414042" d="M531.9,790.5H298.4c-2.7,0-4.9-2.2-4.9-4.9V611c0-2.7,2.2-4.9,4.9-4.9h233.5c2.7,0,4.9,2.2,4.9,4.9
					v174.6C536.8,788.3,534.6,790.5,531.9,790.5z M298.4,607.7c-1.8,0-3.3,1.5-3.3,3.3v174.6c0,1.8,1.5,3.3,3.3,3.3h233.5
					c1.8,0,3.3-1.5,3.3-3.3V611c0-1.8-1.5-3.3-3.3-3.3H298.4z"/>
			</g>
			<g>
				<path fill="#DB514D" d="M394.5,728.3l51.3-34.8c2.9-2,2.9-6.2,0-8.2l-7.2-4.9l-39,25.8c-3.7,2.5-8.6,2.6-12.4,0.3l-0.4-0.2v18
					C386.8,728.2,391.2,730.6,394.5,728.3z"/>
			</g>
			<g>
				<path fill="#414042" d="M391.7,730L391.7,730c-3.2,0-5.8-2.6-5.8-5.8v-69.7c0-3.2,2.6-5.8,5.8-5.8c1.1,0,2.2,0.3,3.2,1
					l51.3,34.8c1.6,1.1,2.5,2.8,2.5,4.8s-0.9,3.7-2.5,4.8L395,729C394,729.6,392.9,730,391.7,730z M391.7,650.4
					c-2,0-4.2,1.6-4.2,4.2v69.7c0,2.6,2.2,4.2,4.2,4.2l0,0c0.8,0,1.6-0.3,2.3-0.7l51.3-34.8c1.2-0.8,1.8-2,1.8-3.4
					c0-1.4-0.7-2.7-1.8-3.4l-51.3-34.8C393.4,650.6,392.6,650.4,391.7,650.4z"/>
			</g>
		</g>
		<g>
			<g>
				<path fill="#B0CDE8" d="M838.6,426.6v-8.8c0-0.8-0.6-1.4-1.4-1.4h-8.1c-0.8-4.6-2.6-8.8-5.2-12.5l5.7-5.7c0.6-0.6,0.6-1.5,0-2
					l-6.2-6.2c-0.6-0.6-1.5-0.6-2,0l-5.7,5.7c0,0,0,0,0,0c-3.7-2.5-7.9-4.3-12.5-5.2v-8.1c0-0.8-0.6-1.4-1.4-1.4H793
					c-0.8,0-1.4,0.6-1.4,1.4v8.1c-4.6,0.8-8.8,2.6-12.5,5.2c0,0,0,0,0,0l-5.7-5.7c-0.6-0.6-1.5-0.6-2,0l-6.2,6.2
					c-0.6,0.6-0.6,1.5,0,2l5.7,5.7c-2.5,3.7-4.3,7.9-5.2,12.5h-8.1c-0.8,0-1.4,0.6-1.4,1.4v8.8c0,0.8,0.6,1.4,1.4,1.4h8.1
					c0.8,4.6,2.6,8.8,5.2,12.5c0,0,0,0,0,0l-5.7,5.7c-0.6,0.6-0.6,1.5,0,2l6.2,6.2c0.6,0.6,1.5,0.6,2,0l5.7-5.7c0,0,0,0,0,0
					c3.7,2.5,7.9,4.3,12.5,5.2v8.1c0,0.8,0.6,1.4,1.4,1.4h8.8c0.8,0,1.4-0.6,1.4-1.4v-8.1c4.6-0.8,8.8-2.6,12.5-5.2c0,0,0,0,0,0
					l5.7,5.7c0.6,0.6,1.5,0.6,2,0l6.2-6.2c0.6-0.6,0.6-1.5,0-2l-5.7-5.7c0,0,0,0,0,0c2.5-3.7,4.3-7.9,5.2-12.5h8.1
					C837.9,428.1,838.6,427.4,838.6,426.6z M797.4,440.1c-9.9,0-17.9-8-17.9-17.9s8-17.9,17.9-17.9s17.9,8,17.9,17.9
					S807.3,440.1,797.4,440.1z"/>
			</g>
			<g>
				<path fill="#EA5F57" d="M881.9,460.9V455c0-0.5-0.4-1-1-1h-5.4c-0.6-3-1.7-5.8-3.4-8.3l3.8-3.8c0.4-0.4,0.4-1,0-1.4l-4.1-4.1
					c-0.4-0.4-1-0.4-1.4,0l-3.8,3.8c0,0,0,0,0,0c-2.4-1.7-5.2-2.9-8.3-3.4v-5.4c0-0.5-0.4-1-1-1h-5.8c-0.5,0-1,0.4-1,1v5.4
					c-3,0.6-5.8,1.7-8.3,3.4c0,0,0,0,0,0l-3.8-3.8c-0.4-0.4-1-0.4-1.4,0l-4.1,4.1c-0.4,0.4-0.4,1,0,1.4l3.8,3.8
					c-1.7,2.4-2.9,5.2-3.4,8.3h-5.4c-0.5,0-1,0.4-1,1v5.8c0,0.5,0.4,1,1,1h5.4c0.6,3,1.7,5.8,3.4,8.3c0,0,0,0,0,0l-3.8,3.8
					c-0.4,0.4-0.4,1,0,1.4l4.1,4.1c0.4,0.4,1,0.4,1.4,0l3.8-3.8c0,0,0,0,0,0c2.4,1.7,5.2,2.9,8.3,3.4v5.4c0,0.5,0.4,1,1,1h5.8
					c0.5,0,1-0.4,1-1V479c3-0.6,5.8-1.7,8.3-3.4c0,0,0,0,0,0l3.8,3.8c0.4,0.4,1,0.4,1.4,0l4.1-4.1c0.4-0.4,0.4-1,0-1.4l-3.8-3.8
					c0,0,0,0,0,0c1.7-2.4,2.9-5.2,3.4-8.3h5.4C881.4,461.8,881.9,461.4,881.9,460.9z M854.5,469.9c-6.6,0-11.9-5.3-11.9-11.9
					s5.3-11.9,11.9-11.9s11.9,5.3,11.9,11.9S861.1,469.9,854.5,469.9z"/>
			</g>
			<g>
				<path fill="#B0CDE8" d="M879.5,408.7l-0.5-4.1c0-0.4-0.4-0.6-0.8-0.6l-3.7,0.5c-0.7-2.1-1.7-3.9-3.1-5.4l2.3-3
					c0.2-0.3,0.2-0.7-0.1-0.9l-3.2-2.5c-0.3-0.2-0.7-0.2-0.9,0.1l-2.3,3c0,0,0,0,0,0c-1.8-0.9-3.9-1.5-6.1-1.6l-0.5-3.7
					c0-0.4-0.4-0.6-0.8-0.6l-4.1,0.5c-0.4,0-0.6,0.4-0.6,0.8l0.5,3.7c-2.1,0.7-3.9,1.7-5.4,3.1c0,0,0,0,0,0l-3-2.3
					c-0.3-0.2-0.7-0.2-0.9,0.1l-2.5,3.2c-0.2,0.3-0.2,0.7,0.1,0.9l3,2.3c-0.9,1.8-1.5,3.9-1.6,6.1l-3.7,0.5c-0.4,0-0.6,0.4-0.6,0.8
					l0.5,4.1c0,0.4,0.4,0.6,0.8,0.6l3.7-0.5c0.7,2.1,1.7,3.9,3.1,5.4c0,0,0,0,0,0l-2.3,3c-0.2,0.3-0.2,0.7,0.1,0.9l3.2,2.5
					c0.3,0.2,0.7,0.2,0.9-0.1l2.3-3c0,0,0,0,0,0c1.8,0.9,3.9,1.5,6.1,1.6l0.5,3.7c0,0.4,0.4,0.6,0.8,0.6l4.1-0.5
					c0.4,0,0.6-0.4,0.6-0.8l-0.5-3.7c2.1-0.7,3.9-1.7,5.4-3.1c0,0,0,0,0,0l3,2.3c0.3,0.2,0.7,0.2,0.9-0.1l2.5-3.2
					c0.2-0.3,0.2-0.7-0.1-0.9l-3-2.3c0,0,0,0,0,0c0.9-1.8,1.5-3.9,1.6-6.1l3.7-0.5C879.3,409.4,879.6,409,879.5,408.7z M861.3,417.4
					c-4.6,0.6-8.8-2.6-9.3-7.2c-0.6-4.6,2.6-8.8,7.2-9.3c4.6-0.6,8.8,2.6,9.3,7.2C869.1,412.6,865.9,416.8,861.3,417.4z"/>
			</g>
		</g>
		<g>
			<path fill="#414042" d="M995.3,726.3h-16.9c-0.4,0-0.8-0.4-0.8-0.8V613.1c0-0.4,0.4-0.8,0.8-0.8h16.9c0.4,0,0.8,0.4,0.8,0.8
				v112.4C996.1,726,995.7,726.3,995.3,726.3z M979.2,724.7h15.3V613.9h-15.3V724.7z"/>
		</g>
		<g>
			<path fill="#FCC8A4" d="M988.9,689L988.9,689c-8,0-14.4,6.4-14.4,14.4v2.4c0,8.3,6.7,14.9,14.9,14.9l0,0
				c9.1,0,16.4-7.7,15.8-16.9C1004.7,695.4,997.3,689,988.9,689z"/>
		</g>
		<g>
			<g>
				<rect x="1135.5" y="614.6" fill="#EA5F57" width="38.2" height="4.8"/>
			</g>
		</g>
		<g>
			<g>
				<g>
					
						<rect x="1145.2" y="561.4" transform="matrix(0.3365 0.9417 -0.9417 0.3365 1302.1597 -699.649)" fill="#EA5F57" width="4.8" height="25.7"/>
				</g>
			</g>
			<g>
				<g>
					
						<rect x="1134.7" y="657.5" transform="matrix(0.9417 0.3364 -0.3364 0.9417 288.8108 -347.5469)" fill="#EA5F57" width="25.7" height="4.8"/>
				</g>
			</g>
		</g>
		<g>
			<g>
				<path fill="#414042" d="M1173.7,620.2h-38.2c-0.4,0-0.8-0.4-0.8-0.8v-4.8c0-0.4,0.4-0.8,0.8-0.8h38.2c0.4,0,0.8,0.4,0.8,0.8v4.8
					C1174.5,619.8,1174.1,620.2,1173.7,620.2z M1136.3,618.6h36.6v-3.2h-36.6V618.6z"/>
			</g>
		</g>
		<g>
			<g>
				<g>
					<path fill="#414042" d="M1136.3,581.5c-0.3,0-0.6-0.2-0.7-0.5l-1.6-4.5c-0.1-0.2-0.1-0.4,0-0.6c0.1-0.2,0.3-0.3,0.5-0.4
						l24.2-8.6c0.4-0.1,0.9,0.1,1,0.5l1.6,4.5c0.1,0.2,0.1,0.4,0,0.6c-0.1,0.2-0.3,0.3-0.5,0.4l-24.2,8.6
						C1136.4,581.5,1136.4,581.5,1136.3,581.5z M1135.7,576.7l1.1,3l22.7-8.1l-1.1-3L1135.7,576.7z"/>
				</g>
			</g>
			<g>
				<g>
					<path fill="#414042" d="M1158.8,667.2c-0.1,0-0.2,0-0.3,0l-24.2-8.6c-0.2-0.1-0.4-0.2-0.5-0.4c-0.1-0.2-0.1-0.4,0-0.6l1.6-4.5
						c0.1-0.4,0.6-0.6,1-0.5l24.2,8.6c0.2,0.1,0.4,0.2,0.5,0.4c0.1,0.2,0.1,0.4,0,0.6l-1.6,4.5
						C1159.5,667,1159.2,667.2,1158.8,667.2z M1135.7,657.3l22.7,8.1l1.1-3l-22.7-8.1L1135.7,657.3z"/>
				</g>
			</g>
		</g>
		<g>
			<g>
				<path fill="#414042" d="M801.7,464.2H793c-1.2,0-2.2-1-2.2-2.2v-7.4c-4.1-0.8-8-2.5-11.6-4.8l-5.2,5.3c-0.8,0.8-2.3,0.8-3.2,0
					l-6.2-6.2c-0.9-0.9-0.9-2.3,0-3.2l5.3-5.3c-2.3-3.5-3.9-7.4-4.8-11.6h-7.4c-1.2,0-2.2-1-2.2-2.2v-8.8c0-1.2,1-2.2,2.2-2.2h7.4
					c0.8-4.1,2.5-8,4.8-11.6l-5.3-5.3c-0.9-0.9-0.9-2.3,0-3.2l6.2-6.2c0.8-0.8,2.3-0.8,3.2,0l5.3,5.3c3.5-2.3,7.4-3.9,11.6-4.8v-7.4
					c0-1.2,1-2.2,2.2-2.2h8.8c1.2,0,2.2,1,2.2,2.2v7.4c4.1,0.8,8,2.5,11.6,4.8l5.2-5.3c0.8-0.8,2.3-0.8,3.2,0l6.2,6.2
					c0.9,0.9,0.9,2.3,0,3.2l-5.3,5.3c2.3,3.5,3.9,7.4,4.8,11.6h7.4c1.2,0,2.2,1,2.2,2.2v8.8c0,1.2-1,2.2-2.2,2.2h-7.4
					c-0.8,4.1-2.5,8-4.8,11.6l5.3,5.3c0.9,0.9,0.9,2.3,0,3.2L824,455c-0.8,0.8-2.3,0.8-3.2,0l-5.3-5.3c-3.5,2.3-7.4,3.9-11.6,4.8
					v7.4C804,463.2,803,464.2,801.7,464.2z M779.1,448c0.2,0,0.3,0,0.5,0.1c3.7,2.5,7.8,4.2,12.1,5c0.4,0.1,0.7,0.4,0.7,0.8v8.1
					c0,0.4,0.3,0.7,0.7,0.7h8.8c0.4,0,0.7-0.3,0.7-0.7v-8.1c0-0.4,0.3-0.7,0.7-0.8c4.4-0.8,8.5-2.5,12.1-5c0.3-0.2,0.7-0.2,1,0.1
					l5.7,5.7c0.2,0.2,0.7,0.2,0.9,0l6.2-6.2c0.3-0.3,0.3-0.7,0-0.9l-5.7-5.7c-0.3-0.3-0.3-0.7-0.1-1c2.5-3.7,4.2-7.8,5-12.1
					c0.1-0.4,0.4-0.7,0.8-0.7h8.1c0.4,0,0.7-0.3,0.7-0.7v-8.8c0-0.4-0.3-0.7-0.7-0.7h-8.1c-0.4,0-0.7-0.3-0.8-0.7
					c-0.8-4.4-2.5-8.5-5-12.1c-0.2-0.3-0.2-0.7,0.1-1l5.7-5.7c0.1-0.1,0.2-0.3,0.2-0.5c0-0.2-0.1-0.3-0.2-0.5l-6.2-6.2
					c-0.2-0.2-0.7-0.2-0.9,0l-5.7,5.7c-0.3,0.3-0.7,0.3-1,0.1c-3.7-2.5-7.8-4.2-12.1-5c-0.4-0.1-0.7-0.4-0.7-0.8v-8.1
					c0-0.4-0.3-0.7-0.7-0.7H793c-0.4,0-0.7,0.3-0.7,0.7v8.1c0,0.4-0.3,0.7-0.7,0.8c-4.4,0.8-8.5,2.5-12.1,5c-0.3,0.2-0.7,0.2-1-0.1
					l-5.7-5.7c-0.2-0.2-0.7-0.2-0.9,0l-6.2,6.2c-0.3,0.3-0.3,0.7,0,0.9l5.7,5.7c0.3,0.3,0.3,0.7,0.1,1c-2.5,3.7-4.2,7.8-5,12.1
					c-0.1,0.4-0.4,0.7-0.8,0.7h-8.1c-0.4,0-0.7,0.3-0.7,0.7v8.8c0,0.4,0.3,0.7,0.7,0.7h8.1c0.4,0,0.7,0.3,0.8,0.7
					c0.8,4.4,2.5,8.5,5,12.1c0.2,0.3,0.2,0.7-0.1,1l-5.7,5.7c-0.3,0.3-0.3,0.7,0,0.9l6.2,6.2c0.2,0.2,0.7,0.2,0.9,0l5.7-5.7
					C778.7,448,778.9,448,779.1,448z M797.4,440.9c-10.3,0-18.7-8.4-18.7-18.7c0-10.3,8.4-18.7,18.7-18.7c10.3,0,18.7,8.4,18.7,18.7
					C816.1,432.5,807.7,440.9,797.4,440.9z M797.4,405.1c-9.4,0-17.1,7.7-17.1,17.1s7.7,17.1,17.1,17.1c9.4,0,17.1-7.7,17.1-17.1
					S806.8,405.1,797.4,405.1z"/>
			</g>
			<g>
				<path fill="#414042" d="M857.4,486.1h-5.8c-1,0-1.8-0.8-1.8-1.8v-4.7c-2.6-0.6-5.1-1.6-7.4-3.1l-3.3,3.3c-0.7,0.7-1.8,0.7-2.5,0
					l-4.1-4.1c-0.7-0.7-0.7-1.8,0-2.5l3.3-3.3c-1.5-2.3-2.5-4.7-3.1-7.4h-4.7c-1,0-1.8-0.8-1.8-1.8V455c0-1,0.8-1.8,1.8-1.8h4.7
					c0.6-2.6,1.6-5.1,3.1-7.4l-3.3-3.3c-0.7-0.7-0.7-1.8,0-2.5l4.1-4.1c0.7-0.7,1.8-0.7,2.5,0l3.3,3.3c2.3-1.5,4.7-2.5,7.4-3.1v-4.7
					c0-1,0.8-1.8,1.8-1.8h5.8c1,0,1.8,0.8,1.8,1.8v4.7c2.6,0.6,5.1,1.6,7.4,3.1l3.3-3.3c0.7-0.7,1.8-0.7,2.5,0l4.1,4.1
					c0.3,0.3,0.5,0.8,0.5,1.2c0,0.5-0.2,0.9-0.5,1.2l-3.3,3.3c1.5,2.3,2.5,4.7,3.1,7.4h4.7c1,0,1.8,0.8,1.8,1.8v5.8
					c0,1-0.8,1.8-1.8,1.8h-4.7c-0.6,2.6-1.6,5.1-3.1,7.4l3.3,3.3c0.3,0.3,0.5,0.8,0.5,1.2c0,0.5-0.2,0.9-0.5,1.2l-4.1,4.1
					c-0.7,0.7-1.8,0.7-2.5,0l-3.3-3.3c-2.3,1.5-4.7,2.5-7.4,3.1v4.7C859.2,485.3,858.4,486.1,857.4,486.1z M842.4,474.8
					c0.2,0,0.3,0,0.5,0.1c2.4,1.7,5.1,2.8,8,3.3c0.4,0.1,0.7,0.4,0.7,0.8v5.4c0,0.1,0.1,0.2,0.2,0.2h5.8c0.1,0,0.2-0.1,0.2-0.2V479
					c0-0.4,0.3-0.7,0.7-0.8c2.9-0.5,5.5-1.6,8-3.3c0.3-0.2,0.7-0.2,1,0.1l3.8,3.8l0.8,0.6l-0.6-0.6l4.1-4.1v-0.2l-3.8-3.8
					c-0.3-0.3-0.3-0.7-0.1-1c1.7-2.4,2.8-5.1,3.3-8c0.1-0.4,0.4-0.7,0.8-0.7h5.4c0.1,0,0.2-0.1,0.2-0.2V455c0-0.1-0.1-0.2-0.2-0.2
					h-5.4c-0.4,0-0.7-0.3-0.8-0.7c-0.5-2.9-1.6-5.6-3.3-8c-0.2-0.3-0.2-0.7,0.1-1l3.8-3.8v-0.2l-4.1-4.1c0,0-0.1,0-0.2,0
					c0,0,0,0,0,0l-3.8,3.8c-0.3,0.3-0.7,0.3-1,0.1c-2.4-1.7-5.1-2.8-8-3.3c-0.4-0.1-0.7-0.4-0.7-0.8v-5.4c0-0.1-0.1-0.2-0.2-0.2
					h-5.8c-0.1,0-0.2,0.1-0.2,0.2v5.4c0,0.4-0.3,0.7-0.7,0.8c-2.9,0.5-5.6,1.6-8,3.3c-0.3,0.2-0.7,0.2-1-0.1l-3.8-3.8
					c0,0-0.1,0-0.2,0c0,0,0,0,0,0l-4.1,4.1c-0.1,0.1-0.1,0.2,0,0.2l3.8,3.8c0.3,0.3,0.3,0.7,0.1,1c-1.7,2.4-2.8,5.1-3.3,8
					c-0.1,0.4-0.4,0.7-0.8,0.7h-5.4c-0.1,0-0.2,0.1-0.2,0.2v5.8c0,0.1,0.1,0.2,0.2,0.2h5.4c0.4,0,0.7,0.3,0.8,0.7
					c0.5,2.9,1.6,5.5,3.3,8c0.2,0.3,0.2,0.7-0.1,1l-3.8,3.8c-0.1,0.1-0.1,0.2,0,0.2l4.1,4.1l0.8,0.6l-0.6-0.6l3.8-3.8
					C841.9,474.9,842.1,474.8,842.4,474.8z M854.5,470.7c-7,0-12.7-5.7-12.7-12.7s5.7-12.7,12.7-12.7s12.7,5.7,12.7,12.7
					S861.5,470.7,854.5,470.7z M854.5,446.9c-6.1,0-11.1,5-11.1,11.1c0,6.1,5,11.1,11.1,11.1c6.1,0,11.1-5,11.1-11.1
					C865.6,451.8,860.6,446.9,854.5,446.9z"/>
			</g>
			<g>
				<path fill="#414042" d="M860.6,429.2c-0.7,0-1.4-0.5-1.5-1.3l-0.4-3.1c-1.8-0.2-3.5-0.6-5.1-1.4l-1.9,2.5
					c-0.5,0.6-1.4,0.7-2.1,0.3l-3.2-2.5c-0.6-0.5-0.8-1.4-0.3-2.1l1.9-2.5c-1.1-1.4-2-2.9-2.6-4.6l-3.1,0.4c0,0-0.2,0-0.2,0
					c-0.7,0-1.4-0.5-1.5-1.3l-0.5-4.1c0-0.4,0.1-0.8,0.3-1.1c0.2-0.3,0.6-0.5,1-0.6l3.1-0.4c0.2-1.8,0.6-3.5,1.4-5.1l-2.5-1.9
					c-0.6-0.5-0.8-1.4-0.3-2.1l2.5-3.2c0.5-0.6,1.4-0.7,2.1-0.3l2.5,1.9c1.4-1.1,2.9-2,4.6-2.6l-0.4-3.1c0-0.4,0.1-0.8,0.3-1.1
					c0.2-0.3,0.6-0.5,1-0.6l4.1-0.5c0,0,0.2,0,0.2,0c0.7,0,1.4,0.5,1.5,1.3l0.4,3.1c1.8,0.2,3.5,0.6,5.1,1.4l1.9-2.5
					c0.5-0.6,1.4-0.7,2.1-0.3l3.2,2.5c0.6,0.5,0.8,1.4,0.3,2.1l-1.9,2.5c1.1,1.4,2,2.9,2.6,4.6l3.1-0.4c0,0,0.2,0,0.2,0
					c0.7,0,1.4,0.5,1.5,1.3l0.5,4.1c0,0.4-0.1,0.8-0.3,1.1c-0.2,0.3-0.6,0.5-1,0.6l-3.1,0.4c-0.2,1.8-0.6,3.5-1.4,5.1l2.5,1.9
					c0.3,0.2,0.5,0.6,0.6,1c0.1,0.4-0.1,0.8-0.3,1.1l-2.5,3.2c-0.5,0.6-1.4,0.7-2.1,0.3l-2.5-1.9c-1.4,1.1-2.9,2-4.6,2.6l0.4,3.1
					c0.1,0.8-0.5,1.5-1.3,1.6l-4.1,0.5C860.8,429.2,860.6,429.2,860.6,429.2z M853.4,421.7c0.1,0,0.2,0,0.4,0.1
					c1.8,0.9,3.7,1.4,5.7,1.5c0.4,0,0.7,0.3,0.7,0.7l0.5,3.6l3.8-0.5l-0.5-3.6c0-0.4,0.2-0.7,0.5-0.9c1.9-0.6,3.6-1.6,5.1-3
					c0.3-0.3,0.7-0.3,1,0l2.9,2.2l2.3-3l-2.9-2.2c-0.3-0.2-0.4-0.7-0.2-1c0.9-1.8,1.4-3.7,1.5-5.7c0-0.4,0.3-0.7,0.7-0.7l3.6-0.5
					l-0.5-3.8l-3.6,0.5c-0.4,0-0.7-0.2-0.9-0.5c-0.6-1.9-1.6-3.7-3-5.1c-0.3-0.3-0.3-0.7,0-1l2.2-2.9l-3-2.3l-2.2,2.9
					c-0.2,0.3-0.6,0.4-1,0.2c-1.8-0.9-3.7-1.4-5.7-1.5c-0.4,0-0.7-0.3-0.7-0.7l-0.5-3.6l-3.8,0.5l0.5,3.6c0,0.4-0.2,0.7-0.5,0.9
					c-1.9,0.6-3.6,1.6-5.1,3c-0.3,0.3-0.7,0.3-1,0l-2.9-2.2l-2.3,3l2.9,2.2c0.3,0.2,0.4,0.7,0.2,1c-0.9,1.8-1.4,3.7-1.5,5.7
					c0,0.4-0.3,0.7-0.7,0.7l-3.6,0.5l0.5,3.8l3.6-0.5c0.4-0.1,0.7,0.2,0.9,0.5c0.6,1.9,1.6,3.6,3,5.1c0.3,0.3,0.3,0.7,0,1l-2.2,2.9
					l3,2.3l2.2-2.9C852.9,421.8,853.1,421.7,853.4,421.7z M860.2,418.2c-4.6,0-8.5-3.4-9-8c-0.6-5,2.9-9.6,7.9-10.2
					c5-0.7,9.6,3,10.2,7.9c0.3,2.4-0.3,4.8-1.8,6.7s-3.6,3.2-6.1,3.5C861,418.2,860.6,418.2,860.2,418.2z M860.2,401.6
					c-0.3,0-0.7,0-1,0.1c-4.1,0.5-7,4.3-6.5,8.5c0.5,4.1,4.3,7,8.5,6.5c2-0.3,3.8-1.3,5-2.9c1.2-1.6,1.8-3.6,1.5-5.6
					C867.2,404.4,864,401.6,860.2,401.6z"/>
			</g>
		</g>
		<g>
			<path fill="#E6E7E8" d="M686,778.7h-76.5c-3.7,0-6.7,2.5-6.7,5.5l0,0c0,3,3,5.5,6.7,5.5H686h76.5c3.7,0,6.7-2.5,6.7-5.5l0,0
				c0-3-3-5.5-6.7-5.5H686z"/>
		</g>
		<g>
			<path fill="#414042" d="M762.5,790.5h-153c-4.1,0-7.5-2.8-7.5-6.3c0-3.5,3.4-6.3,7.5-6.3h153c4.1,0,7.5,2.8,7.5,6.3
				C770,787.7,766.6,790.5,762.5,790.5z M609.5,779.5c-3.3,0-5.9,2.1-5.9,4.7c0,2.6,2.6,4.7,5.9,4.7h153c3.3,0,5.9-2.1,5.9-4.7
				c0-2.6-2.6-4.7-5.9-4.7H609.5z"/>
		</g>
		<g>
			<path fill="#414042" d="M989.4,721.6c-8.7,0-15.7-7.1-15.7-15.7v-2.4c0-8.4,6.8-15.2,15.2-15.2c9.1,0,16.6,6.8,17.2,15.6
				c0.3,4.7-1.3,9.1-4.5,12.5C998.5,719.7,994,721.6,989.4,721.6z M988.9,689.8c-7.5,0-13.6,6.1-13.6,13.6v2.4
				c0,7.8,6.3,14.2,14.2,14.2c4.2,0,8.1-1.7,11-4.8c2.9-3.1,4.3-7.1,4-11.3C1004,696,997.1,689.8,988.9,689.8z"/>
		</g>
		<g>
			<path fill="#EA5F57" d="M1098.5,629.1h14.8c5.9,0,10.8-4.8,10.8-10.8v-0.5c0-5.9-4.8-10.8-10.8-10.8h-14.8V629.1z"/>
		</g>
		<g>
			<path fill="#414042" d="M1113.3,629.9h-14.8c-0.4,0-0.8-0.4-0.8-0.8v-22c0-0.4,0.4-0.8,0.8-0.8h14.8c6.4,0,11.5,5.2,11.5,11.5
				v0.5C1124.9,624.7,1119.7,629.9,1113.3,629.9z M1099.3,628.3h14.1c5.5,0,10-4.5,10-10v-0.5c0-5.5-4.5-10-10-10h-14.1V628.3z"/>
		</g>
		<g>
			<polygon fill="#B0CDE8" points="999.7,597.5 999.7,618.1 999.7,638.7 1105.1,666 1105.1,618.1 1105.1,570.2 			"/>
		</g>
		<g>
			<path fill="#414042" d="M1105.1,666.7c-0.1,0-0.1,0-0.2,0l-105.3-27.3c-0.4-0.1-0.6-0.4-0.6-0.8v-41.1c0-0.4,0.2-0.7,0.6-0.8
				l105.3-27.3c0.2-0.1,0.5,0,0.7,0.1c0.2,0.2,0.3,0.4,0.3,0.6V666c0,0.2-0.1,0.5-0.3,0.6C1105.4,666.7,1105.3,666.7,1105.1,666.7z
				 M1000.5,638l103.8,26.9v-93.7l-103.8,26.9V638z"/>
		</g>
		<g>
			<path fill="#EA5F57" d="M980.1,629.1h-14.8c-5.9,0-10.8-4.8-10.8-10.8v-0.5c0-5.9,4.8-10.8,10.8-10.8h14.8V629.1z"/>
		</g>
		<g>
			<path fill="#414042" d="M980.1,629.9h-14.8c-6.4,0-11.5-5.2-11.5-11.5v-0.5c0-6.4,5.2-11.5,11.5-11.5h14.8c0.4,0,0.8,0.4,0.8,0.8
				v22C980.9,629.5,980.5,629.9,980.1,629.9z M965.2,607.9c-5.5,0-10,4.5-10,10v0.5c0,5.5,4.5,10,10,10h14.1v-20.4H965.2z"/>
		</g>
		<g>
			<path fill="#EA5F57" d="M999.3,642.7h-19.2c-8.5,0-15.4-6.9-15.4-15.4v-18.5c0-8.5,6.9-15.4,15.4-15.4h19.2
				c1.9,0,3.4,1.5,3.4,3.4v42.6C1002.7,641.2,1001.2,642.7,999.3,642.7z"/>
		</g>
		<g>
			<path fill="#EA5F57" d="M1105.6,670.7L1105.6,670.7c-3.9,0-7.1-3.2-7.1-7.1v-90.9c0-3.9,3.2-7.1,7.1-7.1l0,0
				c3.9,0,7.1,3.2,7.1,7.1v90.9C1112.7,667.5,1109.5,670.7,1105.6,670.7z"/>
		</g>
		<g>
			<path fill="#414042" d="M999.3,643.5h-19.2c-8.9,0-16.2-7.3-16.2-16.2v-18.5c0-8.9,7.3-16.2,16.2-16.2h19.2
				c2.3,0,4.2,1.9,4.2,4.2v42.6C1003.4,641.7,1001.6,643.5,999.3,643.5z M980.1,594.2c-8,0-14.6,6.5-14.6,14.6v18.5
				c0,8,6.5,14.6,14.6,14.6h19.2c1.4,0,2.6-1.2,2.6-2.6v-42.6c0-1.4-1.2-2.6-2.6-2.6H980.1z"/>
		</g>
		<g>
			<path fill="#414042" d="M1105.6,671.5c-4.4,0-7.9-3.6-7.9-7.9v-90.9c0-4.4,3.6-7.9,7.9-7.9c4.4,0,7.9,3.6,7.9,7.9v90.9
				C1113.5,667.9,1109.9,671.5,1105.6,671.5z M1105.6,566.3c-3.5,0-6.3,2.8-6.3,6.3v90.9c0,3.5,2.8,6.3,6.3,6.3s6.3-2.8,6.3-6.3
				v-90.9C1111.9,569.1,1109.1,566.3,1105.6,566.3z"/>
		</g>
		<g>
			<g>
				<path fill="#EA5F57" d="M509.2,221.8h42.6c18.9,0,34.2,15.3,34.2,34.2v10.4c0,16.9-12.3,31-28.4,33.7l13.3,25.9l-40.3-25.4
					h-21.4c-18.9,0-34.2-15.3-34.2-34.2V256C475,237.1,490.4,221.8,509.2,221.8z"/>
			</g>
			<g>
				<g>
					<circle fill="#FFFFFF" cx="564.7" cy="261.6" r="6"/>
				</g>
				<g>
					<circle fill="#FFFFFF" cx="541.9" cy="261.6" r="6"/>
				</g>
				<g>
					<circle fill="#FFFFFF" cx="519.1" cy="261.6" r="6"/>
				</g>
				<g>
					<circle fill="#FFFFFF" cx="496.3" cy="261.6" r="6"/>
				</g>
			</g>
			<g>
				<path fill="#414042" d="M570.9,326.8c-0.1,0-0.3,0-0.4-0.1l-40.1-25.3h-21.1c-19.3,0-35-15.7-35-35V256c0-19.3,15.7-35,35-35
					h42.6c19.3,0,35,15.7,35,35v10.4c0,16.8-11.7,31-28,34.3l12.7,24.8c0.1,0.1,0.2,0.3,0.2,0.5
					C571.7,326.5,571.4,326.8,570.9,326.8C570.9,326.8,570.9,326.8,570.9,326.8z M509.2,222.6c-18.4,0-33.4,15-33.4,33.4v10.4
					c0,18.4,15,33.4,33.4,33.4h21.4c0.2,0,0.3,0,0.4,0.1l37.8,23.9l-12-23.3c-0.1-0.2-0.1-0.5,0-0.7c0.1-0.2,0.3-0.4,0.6-0.4
					c16.1-2.7,27.8-16.6,27.8-32.9V256c0-18.4-15-33.4-33.4-33.4H509.2z"/>
			</g>
			<g>
				<g>
					<path fill="#414042" d="M564.7,268.3c-3.7,0-6.8-3-6.8-6.8c0-3.7,3-6.8,6.8-6.8c3.7,0,6.8,3,6.8,6.8
						C571.5,265.3,568.4,268.3,564.7,268.3z M564.7,256.4c-2.8,0-5.2,2.3-5.2,5.2c0,2.8,2.3,5.2,5.2,5.2c2.8,0,5.2-2.3,5.2-5.2
						C569.9,258.7,567.6,256.4,564.7,256.4z"/>
				</g>
				<g>
					<path fill="#414042" d="M541.9,268.3c-3.7,0-6.8-3-6.8-6.8c0-3.7,3-6.8,6.8-6.8c3.7,0,6.8,3,6.8,6.8
						C548.7,265.3,545.7,268.3,541.9,268.3z M541.9,256.4c-2.8,0-5.2,2.3-5.2,5.2c0,2.8,2.3,5.2,5.2,5.2c2.8,0,5.2-2.3,5.2-5.2
						C547.1,258.7,544.8,256.4,541.9,256.4z"/>
				</g>
				<g>
					<path fill="#414042" d="M519.1,268.3c-3.7,0-6.8-3-6.8-6.8c0-3.7,3-6.8,6.8-6.8c3.7,0,6.8,3,6.8,6.8
						C525.9,265.3,522.9,268.3,519.1,268.3z M519.1,256.4c-2.8,0-5.2,2.3-5.2,5.2c0,2.8,2.3,5.2,5.2,5.2c2.8,0,5.2-2.3,5.2-5.2
						C524.3,258.7,522,256.4,519.1,256.4z"/>
				</g>
				<g>
					<path fill="#414042" d="M496.3,268.3c-3.7,0-6.8-3-6.8-6.8c0-3.7,3-6.8,6.8-6.8s6.8,3,6.8,6.8
						C503.1,265.3,500.1,268.3,496.3,268.3z M496.3,256.4c-2.8,0-5.2,2.3-5.2,5.2c0,2.8,2.3,5.2,5.2,5.2c2.8,0,5.2-2.3,5.2-5.2
						C501.5,258.7,499.2,256.4,496.3,256.4z"/>
				</g>
			</g>
			<g>
				<path fill="#B0CDE8" d="M487.2,189.5h-47.1c-20.9,0-37.8,16.9-37.8,37.8v11.5c0,18.7,13.6,34.2,31.4,37.3l-14.7,28.7l44.5-28.1
					h23.6c20.9,0,37.8-16.9,37.8-37.8v-11.5C525,206.4,508.1,189.5,487.2,189.5z"/>
			</g>
			<g>
				<g>
					<circle fill="#FFFFFF" cx="425.9" cy="233.5" r="6.6"/>
				</g>
				<g>
					<circle fill="#FFFFFF" cx="451.1" cy="233.5" r="6.6"/>
				</g>
				<g>
					<circle fill="#FFFFFF" cx="476.3" cy="233.5" r="6.6"/>
				</g>
				<g>
					<circle fill="#FFFFFF" cx="501.5" cy="233.5" r="6.6"/>
				</g>
			</g>
			<g>
				<path fill="#414042" d="M419.1,305.5c-0.2,0-0.4-0.1-0.5-0.2c-0.3-0.2-0.3-0.6-0.2-0.9l14.2-27.7c-18-3.6-31-19.3-31-37.9v-11.5
					c0-21.3,17.3-38.6,38.6-38.6h47.1c21.3,0,38.6,17.3,38.6,38.6v11.5c0,21.3-17.3,38.6-38.6,38.6h-23.4l-44.3,28
					C419.4,305.5,419.2,305.5,419.1,305.5z M440.2,190.3c-20.4,0-37,16.6-37,37v11.5c0,18.1,12.9,33.5,30.8,36.5
					c0.2,0,0.5,0.2,0.6,0.4c0.1,0.2,0.1,0.5,0,0.7l-13.4,26.1l42.1-26.6c0.1-0.1,0.3-0.1,0.4-0.1h23.6c20.4,0,37-16.6,37-37v-11.5
					c0-20.4-16.6-37-37-37H440.2z"/>
			</g>
			<g>
				<g>
					<path fill="#414042" d="M425.9,240.8c-4.1,0-7.4-3.3-7.4-7.4c0-4.1,3.3-7.4,7.4-7.4s7.4,3.3,7.4,7.4
						C433.3,237.5,430,240.8,425.9,240.8z M425.9,227.7c-3.2,0-5.8,2.6-5.8,5.8s2.6,5.8,5.8,5.8s5.8-2.6,5.8-5.8
						S429.1,227.7,425.9,227.7z"/>
				</g>
				<g>
					<path fill="#414042" d="M451.1,240.8c-4.1,0-7.4-3.3-7.4-7.4c0-4.1,3.3-7.4,7.4-7.4c4.1,0,7.4,3.3,7.4,7.4
						C458.5,237.5,455.2,240.8,451.1,240.8z M451.1,227.7c-3.2,0-5.8,2.6-5.8,5.8s2.6,5.8,5.8,5.8c3.2,0,5.8-2.6,5.8-5.8
						S454.3,227.7,451.1,227.7z"/>
				</g>
				<g>
					<path fill="#414042" d="M476.3,240.8c-4.1,0-7.4-3.3-7.4-7.4c0-4.1,3.3-7.4,7.4-7.4s7.4,3.3,7.4,7.4
						C483.7,237.5,480.4,240.8,476.3,240.8z M476.3,227.7c-3.2,0-5.8,2.6-5.8,5.8s2.6,5.8,5.8,5.8s5.8-2.6,5.8-5.8
						S479.5,227.7,476.3,227.7z"/>
				</g>
				<g>
					<path fill="#414042" d="M501.5,240.8c-4.1,0-7.4-3.3-7.4-7.4c0-4.1,3.3-7.4,7.4-7.4c4.1,0,7.4,3.3,7.4,7.4
						C508.9,237.5,505.5,240.8,501.5,240.8z M501.5,227.7c-3.2,0-5.8,2.6-5.8,5.8s2.6,5.8,5.8,5.8c3.2,0,5.8-2.6,5.8-5.8
						S504.7,227.7,501.5,227.7z"/>
				</g>
			</g>
		</g>
		<g>
			<g>
				<path fill="#3F6477" d="M992.8,411.5h-70.6v-13.8c0-3.9,3.1-7,7-7h56.6c3.9,0,7,3.1,7,7V411.5z"/>
			</g>
			<g>
				<path fill="#414042" d="M992.8,412.3h-70.6c-0.4,0-0.8-0.4-0.8-0.8v-13.8c0-4.3,3.5-7.8,7.8-7.8h56.6c4.3,0,7.8,3.5,7.8,7.8
					v13.8C993.6,411.9,993.2,412.3,992.8,412.3z M923,410.7h69v-13c0-3.4-2.8-6.2-6.2-6.2h-56.6c-3.4,0-6.2,2.8-6.2,6.2V410.7z"/>
			</g>
			<g>
				<path fill="#517991" d="M904.2,405.2c0,0-11.9,5.3-11.9,24.1c0,18.9,11.9,24.1,11.9,24.1h24.5v-24.1v-24.1H904.2z"/>
			</g>
			<g>
				<path fill="#414042" d="M928.7,454.2h-24.5c-0.1,0-0.2,0-0.3-0.1c-0.5-0.2-12.4-5.7-12.4-24.8c0-19.2,11.9-24.6,12.4-24.8
					c0.1,0,0.2-0.1,0.3-0.1h24.5c0.4,0,0.8,0.4,0.8,0.8v48.2C929.5,453.9,929.1,454.2,928.7,454.2z M904.3,452.6h23.6V406h-23.6
					c-1.4,0.7-11.3,6.2-11.3,23.3C893,446.5,902.9,452,904.3,452.6z"/>
			</g>
			<g>
				<path fill="#3F6477" d="M1000,460.1h-83.2c-1.5,0-2.7-1.2-2.7-2.7v-52c0-1.5,1.2-2.7,2.7-2.7h83.2c1.5,0,2.7,1.2,2.7,2.7v52
					C1002.7,458.9,1001.5,460.1,1000,460.1z"/>
			</g>
			<g>
				<path fill="#3F6477" d="M970.3,394.7h-28.9V385c0-6.5,5.2-11.7,11.7-11.7h17.2V394.7z"/>
			</g>
			<g>
				<path fill="#414042" d="M1000,460.9h-83.2c-1.9,0-3.5-1.5-3.5-3.5v-52c0-1.9,1.5-3.5,3.5-3.5h83.2c1.9,0,3.5,1.5,3.5,3.5v52
					C1003.5,459.3,1001.9,460.9,1000,460.9z M916.8,403.6c-1,0-1.9,0.8-1.9,1.9v52c0,1,0.8,1.9,1.9,1.9h83.2c1,0,1.9-0.8,1.9-1.9
					v-52c0-1-0.8-1.9-1.9-1.9H916.8z"/>
			</g>
			<g>
				<path fill="#414042" d="M970.3,395.5h-28.9c-0.4,0-0.8-0.4-0.8-0.8V385c0-6.9,5.6-12.5,12.5-12.5h17.2c0.4,0,0.8,0.4,0.8,0.8
					v21.4C971.1,395.1,970.8,395.5,970.3,395.5z M942.2,393.9h27.4v-19.8h-16.4c-6,0-10.9,4.9-10.9,10.9V393.9z"/>
			</g>
			<g>
				<path fill="#F7B88D" d="M986.6,535.4c-2.3-8.5-11.1-13.4-19.5-11.1c-2.5,0.7-5.2,1.4-8,2.1l0.6-14.5h-3.2
					c-3.1,0-5.6,2.3-5.9,5.4l-1.1,11.4c-23.9,5.5-54.1,10.6-67.6,7.9c-19.7-3.9-59.5-29.1-73.1-38.4c-7.2-4.9-17.1-3.1-22.1,4.1
					c-4.9,7.2-3.1,17.1,4.1,22.1c5.6,3.8,55.3,37.4,84.8,43.3c4.5,0.9,9.8,1.3,15.4,1.3c32.2,0,78.5-12.4,84.5-14.1
					C984,552.6,988.9,543.9,986.6,535.4z"/>
			</g>
			<g>
				<path fill="#414042" d="M891,569.8c-6,0-11.3-0.4-15.6-1.3c-29.7-5.9-79.6-39.6-85.1-43.4c-7.6-5.2-9.5-15.6-4.3-23.2
					c3.1-4.5,8.3-7.3,13.8-7.3c3.4,0,6.6,1,9.4,2.9c13.6,9.3,53.3,34.4,72.8,38.3c2.4,0.5,5.5,0.7,9.2,0.7c18.3,0,45.9-5.8,57.5-8.5
					l1-10.9c0.3-3.5,3.2-6.1,6.7-6.1h3.2c0.2,0,0.4,0.1,0.6,0.2c0.2,0.2,0.2,0.4,0.2,0.6l-0.6,13.4c2.5-0.6,4.8-1.2,7-1.8
					c1.5-0.4,2.9-0.6,4.4-0.6c7.5,0,14.1,5,16.1,12.3c1.2,4.3,0.6,8.8-1.6,12.7c-2.2,3.9-5.8,6.7-10.1,7.8
					C970.5,557.2,923.5,569.8,891,569.8z M799.7,496.2c-5,0-9.6,2.5-12.5,6.6c-4.7,6.9-2.9,16.3,3.9,21c5.6,3.8,55.1,37.3,84.5,43.2
					c4.2,0.8,9.4,1.3,15.3,1.3c32.3,0,79-12.6,84.3-14.1c3.9-1.1,7.1-3.6,9.1-7.1c2-3.5,2.5-7.6,1.4-11.5
					c-1.8-6.5-7.8-11.1-14.5-11.1c-1.3,0-2.7,0.2-4,0.5c-2.5,0.7-5.2,1.4-8,2.1c-0.2,0.1-0.5,0-0.7-0.2c-0.2-0.2-0.3-0.4-0.3-0.6
					l0.6-13.7h-2.4c-2.7,0-4.9,2-5.1,4.7l-1.1,11.4c0,0.3-0.3,0.6-0.6,0.7c-11.3,2.6-39.6,8.6-58.4,8.6c-3.8,0-7-0.3-9.5-0.8
					c-19.8-4-59.7-29.1-73.4-38.5C805.7,497.2,802.8,496.2,799.7,496.2z"/>
			</g>
			<g>
				<g>
					<path fill="#F7B88D" d="M528.7,542.6c-1.4,0-2.9,0-4.3-0.1c-14-0.7-27.7-9.5-39.4-25.4c-24-32.6-41.7-99.1-23.9-168.2
						c2.2-8.5,10.8-13.6,19.3-11.4c8.5,2.2,13.6,10.8,11.4,19.3c-14.5,56.5-1.6,113.9,18.8,141.5c6.7,9,12.5,12.4,15.4,12.6
						c25,1.2,40.4-14.5,41-15.2c6-6.4,15.9-6.8,22.4-0.8c6.4,6,6.8,16,0.8,22.5C589.2,518.3,566.3,542.6,528.7,542.6z"/>
				</g>
			</g>
			<g>
				<g>
					<path fill="#414042" d="M528.7,543.4c-1.4,0-2.9,0-4.4-0.1c-14.3-0.7-28.1-9.6-40-25.8c-24.1-32.7-41.9-99.5-24.1-168.9
						c1.9-7.4,8.5-12.5,16.1-12.5c1.4,0,2.8,0.2,4.2,0.5c4.3,1.1,7.9,3.8,10.2,7.7c2.3,3.8,2.9,8.3,1.8,12.6
						c-14.5,56.2-1.6,113.4,18.6,140.8c6.9,9.4,12.6,12.1,14.8,12.2c24.6,1.2,39.8-14.3,40.4-14.9c3.1-3.4,7.6-5.3,12.2-5.3
						c4.2,0,8.2,1.6,11.3,4.5c3.3,3,5.2,7.1,5.3,11.6c0.2,4.5-1.4,8.7-4.4,12C589.8,518.8,566.7,543.4,528.7,543.4z M476.4,337.7
						c-6.9,0-12.9,4.7-14.6,11.3c-17.7,68.9-0.1,135.1,23.8,167.5c11.6,15.8,25,24.4,38.8,25.1c39.8,1.9,64.2-23.9,65.2-25
						c2.7-3,4.2-6.8,4-10.9c-0.1-4-1.9-7.8-4.8-10.5c-2.8-2.6-6.5-4-10.3-4c-4.2,0-8.1,1.7-11,4.8c-0.6,0.7-16.4,16.7-41.7,15.4
						c-3.3-0.2-9.2-3.6-16-12.9c-20.4-27.7-33.5-85.4-18.9-142.1c1-3.9,0.4-8-1.6-11.4s-5.3-5.9-9.2-6.9
						C478.9,337.9,477.7,337.7,476.4,337.7z"/>
				</g>
			</g>
			<g>
				<g>
					<path fill="#3F6477" d="M962.8,585c-0.2,0-0.4,0-0.7,0c-6.1-0.4-10.8-5.6-10.5-11.7l7.9-136.2c0.4-6.1,5.6-10.8,11.7-10.5
						c6.1,0.4,10.8,5.6,10.5,11.7l-7.9,136.2C973.6,580.5,968.7,585,962.8,585z"/>
				</g>
			</g>
			<g>
				<path fill="#EA5F57" d="M662.6,442c0,0-15.5,1.7-27.8,3.5c-12.3,1.7-86.8,45.7-86.8,45.7l22.2,47.1l32.6-8.7l-9.3,166h178.4
					l-6-171.7l27.8,16l23.6-47.3c0,0-68.9-42.7-88-47.5c-19.2-4.8-41.4-5.4-41.4-5.4L662.6,442z"/>
			</g>
			<g>
				<path fill="#414042" d="M771.9,696.4C771.9,696.4,771.9,696.4,771.9,696.4H593.5c-0.2,0-0.4-0.1-0.6-0.2
					c-0.2-0.2-0.2-0.4-0.2-0.6l9.3-164.9l-31.5,8.4c-0.4,0.1-0.8-0.1-0.9-0.4l-22.2-47.1c-0.2-0.4,0-0.8,0.3-1
					c3-1.8,74.8-44.1,87.1-45.8c12.2-1.7,27.6-3.5,27.8-3.5l25.3-2.4c0.3,0,22.6,0.7,41.7,5.5c19.1,4.8,85.4,45.9,88.3,47.6
					c0.3,0.2,0.5,0.7,0.3,1l-23.6,47.3c-0.1,0.2-0.3,0.3-0.5,0.4c-0.2,0.1-0.4,0-0.6-0.1l-26.6-15.3l5.9,170.1c0,0.1,0,0.2,0,0.2
					C772.7,696,772.4,696.4,771.9,696.4z M594.3,694.8h176.8l-6-170.9c0-0.3,0.1-0.6,0.4-0.7c0.2-0.1,0.6-0.1,0.8,0l27.1,15.6
					l22.9-45.9c-6.9-4.3-69.3-42.6-87.2-47c-18.9-4.7-41-5.4-41.2-5.4l-25.2,2.4c-0.1,0-15.6,1.8-27.7,3.5
					c-11.4,1.6-78.7,41-85.9,45.2l21.6,45.9l31.9-8.5c0.2-0.1,0.5,0,0.7,0.2c0.2,0.2,0.3,0.4,0.3,0.7L594.3,694.8z"/>
			</g>
			<g>
				<path fill="#F7B88D" d="M681.1,469.6L681.1,469.6c-9.3,0-16.9-7.6-16.9-16.9v-30.6H698v30.6C698,462.1,690.4,469.6,681.1,469.6z
					"/>
			</g>
			<g>
				<path fill="#E5A87F" d="M692,439.7L692,439.7c-10,0-19.5-2.4-27.8-6.6v7.6c6.4,3.6,17.7,8.8,27.8,8.2c1.9-0.1,4-0.3,6-0.7v-8.8
					C696,439.6,694,439.7,692,439.7z"/>
			</g>
			<g>
				<path fill="#414042" d="M681.1,470.4c-9.8,0-17.7-7.9-17.7-17.7v-30.6c0-0.4,0.4-0.8,0.8-0.8H698c0.4,0,0.8,0.4,0.8,0.8v30.6
					C698.8,462.5,690.9,470.4,681.1,470.4z M665,422.9v29.8c0,8.9,7.2,16.1,16.1,16.1s16.1-7.2,16.1-16.1v-29.8H665z"/>
			</g>
			<g>
				<path fill="#517991" d="M1012.3,460.1h-83.2c-1.5,0-2.7-1.2-2.7-2.7v-52c0-1.5,1.2-2.7,2.7-2.7h83.2c1.5,0,2.7,1.2,2.7,2.7v52
					C1015,458.9,1013.8,460.1,1012.3,460.1z"/>
			</g>
			<g>
				<path fill="#2D505E" d="M995.6,449.3h-49.9c-1.5,0-2.7-1.2-2.7-2.7v-30.4c0-1.5,1.2-2.7,2.7-2.7h49.9c1.5,0,2.7,1.2,2.7,2.7
					v30.4C998.3,448.1,997.1,449.3,995.6,449.3z"/>
			</g>
			<g>
				<path fill="#517991" d="M1005.1,411.5h-70.6v-13.8c0-3.9,3.1-7,7-7h56.6c3.9,0,7,3.1,7,7V411.5z"/>
			</g>
			<g>
				<path fill="#517991" d="M982.6,394.7h-28.9V385c0-6.5,5.2-11.7,11.7-11.7h5.5c6.5,0,11.7,5.2,11.7,11.7V394.7z"/>
			</g>
			<g>
				<path fill="#414042" d="M1012.3,460.9h-83.2c-1.9,0-3.5-1.5-3.5-3.5v-52c0-1.9,1.5-3.5,3.5-3.5h83.2c1.9,0,3.5,1.5,3.5,3.5v52
					C1015.8,459.3,1014.2,460.9,1012.3,460.9z M929.1,403.6c-1,0-1.9,0.8-1.9,1.9v52c0,1,0.8,1.9,1.9,1.9h83.2c1,0,1.9-0.8,1.9-1.9
					v-52c0-1-0.8-1.9-1.9-1.9H929.1z"/>
			</g>
			<g>
				<path fill="#414042" d="M995.6,450.1h-49.9c-1.9,0-3.5-1.5-3.5-3.5v-30.4c0-1.9,1.5-3.5,3.5-3.5h49.9c1.9,0,3.5,1.5,3.5,3.5
					v30.4C999.1,448.5,997.5,450.1,995.6,450.1z M945.8,414.4c-1,0-1.9,0.8-1.9,1.9v30.4c0,1,0.8,1.9,1.9,1.9h49.9
					c1,0,1.9-0.8,1.9-1.9v-30.4c0-1-0.8-1.9-1.9-1.9H945.8z"/>
			</g>
			<g>
				<path fill="#414042" d="M1005.1,403.6h-70.6c-0.4,0-0.8-0.4-0.8-0.8v-5.2c0-4.3,3.5-7.8,7.8-7.8h56.6c4.3,0,7.8,3.5,7.8,7.8v5.2
					C1005.9,403.2,1005.5,403.6,1005.1,403.6z M935.3,402h69v-4.4c0-3.4-2.8-6.2-6.2-6.2h-56.6c-3.4,0-6.2,2.8-6.2,6.2V402z"/>
			</g>
			<g>
				<path fill="#414042" d="M982.6,391.4h-28.9c-0.4,0-0.8-0.4-0.8-0.8V385c0-6.9,5.6-12.5,12.5-12.5h5.5c6.9,0,12.5,5.6,12.5,12.5
					v5.7C983.4,391.1,983.1,391.4,982.6,391.4z M954.5,389.9h27.3V385c0-6-4.9-10.9-10.9-10.9h-5.5c-6,0-10.9,4.9-10.9,10.9V389.9z"
					/>
			</g>
			<g>
				<path fill="#414042" d="M962.8,585.8c-0.2,0-0.5,0-0.7,0c-3.2-0.2-6.1-1.6-8.2-4c-2.1-2.4-3.2-5.4-3-8.6l6.5-113.2
					c0-0.4,0.4-0.7,0.8-0.7h22.3c0.2,0,0.4,0.1,0.6,0.2c0.2,0.2,0.2,0.4,0.2,0.6l-6.6,114.5C974.4,580.9,969.1,585.8,962.8,585.8z
					 M959,460.9l-6.5,112.4c-0.2,2.8,0.8,5.4,2.6,7.5c1.8,2.1,4.4,3.3,7.1,3.4c5.7,0.3,10.6-4.1,10.9-9.7l6.6-113.6H959z"/>
			</g>
			<g>
				<path fill="#FFCCA9" d="M966.6,524.5c-0.1,0-0.1,0-0.2,0.1c-7.8,2.1-12.5,9.9-10.8,17.7l0.3,1.6c1.8,8.4,10.3,13.6,18.6,11.3
					c0.4-0.1,0.7-0.2,1-0.3c8.8-2.4,13.8-11.8,10.8-20.6C983.5,526.4,974.7,522.3,966.6,524.5z"/>
			</g>
			<g>
				<path fill="#414042" d="M970.6,556.5C970.6,556.5,970.6,556.5,970.6,556.5c-7.4,0-13.9-5.2-15.5-12.5l-0.3-1.6
					c-1.8-8.3,3.2-16.5,11.4-18.7l0.4,0.7l-0.2-0.8c1.5-0.4,3.1-0.6,4.7-0.6c7.3,0,13.7,4.4,16,11c1.6,4.4,1.2,9.1-1,13.3
					c-2.1,4.1-5.9,7.1-10.3,8.3l-1,0.3C973.4,556.4,972,556.5,970.6,556.5z M971,524.7c-1.4,0-2.9,0.2-4.2,0.6c0,0-0.2,0.1-0.2,0.1
					c-7.4,2-11.8,9.4-10.2,16.8l0.3,1.6c1.4,6.5,7.3,11.2,13.9,11.2c0,0,0,0,0,0c1.3,0,2.5-0.2,3.7-0.5l1-0.3c4-1.1,7.4-3.9,9.4-7.5
					c2-3.7,2.3-8,0.9-12C983.4,528.7,977.6,524.7,971,524.7z"/>
			</g>
			<g>
				<path fill="#414042" d="M617.7,375.6l1.8,10.8c2.9,17.2,14,31.9,29.7,39.5l18.2,8.8c0,0-15.8-69.7-17.1-69.2
					C649,365.9,617.7,375.6,617.7,375.6z"/>
			</g>
			<g>
				<path fill="#414042" d="M667.4,435.5c-0.1,0-0.2,0-0.3-0.1l-18.2-8.8c-15.9-7.7-27.2-22.7-30.1-40.1l-1.8-10.8
					c-0.1-0.4,0.2-0.8,0.5-0.9c0.3-0.1,31.3-9.7,32.6-10.1c0.1,0,0.2,0,0.3,0c0.9,0,1.5,0,9.9,35.2c4.1,17.1,8,34.4,8,34.6
					c0.1,0.3,0,0.6-0.3,0.8C667.8,435.4,667.6,435.5,667.4,435.5z M618.6,376.2l1.7,10.1c2.9,16.9,13.8,31.5,29.3,38.9l16.7,8.1
					c-5.8-25.5-14.5-62.2-16.3-66.8C645.9,367.7,622.9,374.8,618.6,376.2z"/>
			</g>
			<g>
				<path fill="#F7B88D" d="M692,439.7L692,439.7c-34.2,0-62-27.7-62-62v-33.2c0-34.2,27.7-62,62-62h0c34.2,0,62,27.7,62,62v33.2
					C754,412,726.2,439.7,692,439.7z"/>
			</g>
			<g>
				<path fill="#EFAC7F" d="M630,344.5h-11.2c-4.6,0-8.3,3.7-8.3,8.3v10c0,8.3,6.8,15.1,15.1,15.1h4.4V344.5z"/>
			</g>
			<g>
				<path fill="#EFAC7F" d="M761.8,344.5H754v33.2c0,0,0,0.1,0,0.1h1c8.3,0,15.1-6.8,15.1-15.1v-10
					C770.1,348.3,766.4,344.5,761.8,344.5z"/>
			</g>
			<g>
				<path fill="#414042" d="M630,378.7h-4.4c-8.8,0-15.9-7.1-15.9-15.9v-10c0-5,4.1-9.1,9.1-9.1H630c0.4,0,0.8,0.4,0.8,0.8v33.3
					C630.8,378.3,630.5,378.7,630,378.7z M618.8,345.3c-4.1,0-7.5,3.4-7.5,7.5v10c0,7.9,6.4,14.3,14.3,14.3h3.6v-31.7H618.8z"/>
			</g>
			<g>
				<path fill="#414042" d="M755,378.7h-1c-0.4,0-0.8-0.4-0.8-0.8l0-33.3c0-0.4,0.4-0.8,0.8-0.8h7.8c5,0,9.1,4.1,9.1,9.1v10
					C770.9,371.5,763.7,378.7,755,378.7z M754.8,377.1h0.2c7.9,0,14.3-6.4,14.3-14.3v-10c0-4.1-3.4-7.5-7.5-7.5h-7V377.1z"/>
			</g>
			<g>
				<path fill="#414042" d="M692,440.5c-34.6,0-62.8-28.2-62.8-62.8v-33.2c0-34.6,28.2-62.8,62.8-62.8c34.6,0,62.8,28.2,62.8,62.8
					v33.2C754.8,412.4,726.6,440.5,692,440.5z M692,283.4c-33.7,0-61.2,27.4-61.2,61.2v33.2c0,33.7,27.4,61.2,61.2,61.2
					c33.7,0,61.2-27.4,61.2-61.2v-33.2C753.2,310.8,725.7,283.4,692,283.4z"/>
			</g>
			<g>
				<circle fill="#414042" cx="667.4" cy="356.9" r="8.6"/>
			</g>
			<g>
				<circle fill="#414042" cx="727.2" cy="356.9" r="8.6"/>
			</g>
			<g>
				<g>
					<path fill="#414042" d="M651.1,346.1c-0.3,0-0.7-0.1-1-0.3c-0.7-0.5-0.8-1.5-0.3-2.2c0.3-0.3,6.7-8.4,16.5-7.9
						c10.3,0.5,13,4.5,13.3,5c0.5,0.7,0.2,1.7-0.5,2.2c-0.7,0.5-1.7,0.2-2.2-0.5l0,0c0,0-2.2-3-10.8-3.5c-8.1-0.4-13.8,6.6-13.8,6.7
						C652.1,345.9,651.6,346.1,651.1,346.1z"/>
				</g>
			</g>
			<g>
				<g>
					<path fill="#414042" d="M713.6,345.3c-0.2,0-0.4,0-0.5-0.1c-0.8-0.3-1.2-1.2-1-2c0.2-0.5,2-5,11.9-7.8
						c9.4-2.6,17.5,3.8,17.8,4.1c0.7,0.6,0.8,1.5,0.2,2.2c-0.6,0.7-1.6,0.8-2.2,0.2c-0.1-0.1-7.2-5.7-15-3.5
						c-8.3,2.3-9.7,5.8-9.7,5.8C714.8,344.9,714.2,345.3,713.6,345.3z"/>
				</g>
			</g>
			<g>
				<path fill="#FFFFFF" d="M666.4,384.5l58.4,2.3l-0.1,1c-1.3,14.6-13.7,25.6-28.4,25.3l-2.6-0.1C678.2,412.7,666,400,666.4,384.5
					L666.4,384.5z"/>
			</g>
			<g>
				<path fill="#414042" d="M696.9,413.9l-3.3-0.1c-7.7-0.2-14.8-3.3-20.1-8.9c-5.3-5.5-8.1-12.8-7.9-20.5c0-0.2,0.1-0.4,0.3-0.6
					c0.2-0.1,0.4-0.2,0.6-0.2l58.4,2.3c0.2,0,0.4,0.1,0.6,0.3c0.1,0.2,0.2,0.4,0.2,0.6l-0.1,1C724.1,402.8,711.8,413.9,696.9,413.9z
					 M667.2,385.4c0,6.9,2.7,13.5,7.5,18.6c5,5.2,11.8,8.2,19,8.4l3.3,0.1c14.1,0,25.7-10.6,27-24.6l0-0.2L667.2,385.4z"/>
			</g>
			<g>
				<path fill="#414042" d="M707,246.5h-42.7c-13.7,0-25.8,9-29.7,22.2c-12.2,0-22,9.9-22,22v56.6l17.4,0.4v8.4l5.1-4.7
					c4.8-4.5,8.1-10.4,9.2-16.8l3.8-21.7l93.2,8.8l3.3,18.9c0.5,2.6,1.2,5.2,2.3,7.6l2.1,4.8c0.9,1.9,2.7,3.3,4.8,3.5l0,0v-6l0,0
					c4.8,0.1,8.8-3.8,8.8-8.6v-39.7C762.8,271.4,737.8,246.5,707,246.5z"/>
			</g>
			<g>
				<path fill="#414042" d="M754,357.3C753.9,357.3,753.9,357.3,754,357.3c-2.5-0.2-4.5-1.8-5.5-4l-2.1-4.8
					c-1.1-2.5-1.9-5.1-2.4-7.8l-3.2-18.3l-91.9-8.7l-3.7,21c-1.2,6.6-4.5,12.7-9.4,17.3l-5.1,4.7c-0.2,0.2-0.6,0.3-0.9,0.1
					c-0.3-0.1-0.5-0.4-0.5-0.7v-7.6l-16.6-0.4c-0.4,0-0.8-0.4-0.8-0.8v-56.6c0-12.4,9.9-22.5,22.2-22.8
					c4.1-13.1,16.5-22.2,30.3-22.2H707c31.2,0,56.5,25.4,56.5,56.5v39.7c0,2.5-1,4.9-2.8,6.6c-1.6,1.6-3.8,2.6-6,2.7v5.2
					c0,0.2-0.1,0.4-0.3,0.6C754.3,357.2,754.2,357.3,754,357.3z M648.2,312.1C648.2,312.1,648.2,312.1,648.2,312.1l93.3,8.8
					c0.4,0,0.6,0.3,0.7,0.7l3.3,18.9c0.5,2.6,1.2,5.1,2.3,7.5l2.1,4.8c0.6,1.4,1.8,2.4,3.3,2.8v-5c0-0.2,0.1-0.4,0.2-0.6
					c0.2-0.1,0.3-0.2,0.6-0.2l0.2,0c2.1,0,4-0.8,5.5-2.3c1.5-1.5,2.3-3.4,2.3-5.5v-39.7c0-30.3-24.6-54.9-54.9-54.9h-42.7
					c-13.3,0-25.2,8.9-28.9,21.7c-0.1,0.3-0.4,0.6-0.8,0.6c-11.7,0-21.2,9.5-21.2,21.2v55.8l16.6,0.4c0.4,0,0.8,0.4,0.8,0.8v6.6
					l3.8-3.5c4.7-4.3,7.9-10.1,9-16.4l3.8-21.7C647.5,312.4,647.8,312.1,648.2,312.1z"/>
			</g>
			<g>
				<path fill="#E5A87F" d="M741.4,321.7l-93.2-8.8c0,0,55.8,17,94.7,17.4L741.4,321.7z"/>
			</g>
		</g>
		<g>
			<g>
				<g>
					<path fill="#FFDA00" d="M823,314.7h38.8c1.6-10.8,5.3-21.1,10.8-30.6c3-5.1,4.7-11.1,4.7-17.4c0-20.1-17-36.2-37.4-34.7
						c-17.1,1.2-30.9,15-32.1,32.1c-0.5,7.2,1.2,14,4.4,19.8C817.6,293.4,821.4,303.9,823,314.7z"/>
				</g>
				<g>
					<g>
						<path fill="#414042" d="M861,316.7h-37.1c-1.7,0-3.1,1.4-3.1,3.1c0,1.7,1.4,3.1,3.1,3.1H861c1.7,0,3.1-1.4,3.1-3.1
							C864.1,318.1,862.7,316.7,861,316.7z"/>
					</g>
					<g>
						<path fill="#414042" d="M857.8,324.4h-30.6c-2.3,0-4.2,1.9-4.2,4.2c0,2.3,1.9,4.2,4.2,4.2h6.5c0.7,3.5,3.9,6.2,7.6,6.2h2.5
							c3.8,0,6.9-2.7,7.6-6.2h6.5c2.3,0,4.2-1.9,4.2-4.2C861.9,326.3,860.1,324.4,857.8,324.4z"/>
					</g>
				</g>
				<g>
					<path fill="#414042" d="M861.8,315.5H823c-0.4,0-0.7-0.3-0.8-0.7c-1.6-10.5-5.2-20.8-10.8-30.6c-3.5-6.1-5.1-13.1-4.5-20.2
						c1.3-17.5,15.4-31.6,32.9-32.8c20.8-1.5,38.2,15,38.2,35.5c0,6.3-1.6,12.4-4.8,17.8c-5.5,9.5-9.1,19.7-10.7,30.3
						C862.5,315.2,862.2,315.5,861.8,315.5z M823.7,313.9h37.4c1.6-10.6,5.3-20.7,10.8-30.2c3-5.1,4.6-11,4.6-17
						c0-19.6-16.7-35.3-36.5-33.9c-16.7,1.2-30.2,14.7-31.4,31.4c-0.5,6.8,1,13.5,4.3,19.3C818.4,293.2,822.1,303.4,823.7,313.9z"/>
				</g>
				<g>
					<g>
						<path fill="#414042" d="M861,323.6h-37.1c-2.1,0-3.8-1.7-3.8-3.8c0-2.1,1.7-3.8,3.8-3.8H861c2.1,0,3.8,1.7,3.8,3.8
							C864.9,321.9,863.1,323.6,861,323.6z M823.9,317.5c-1.2,0-2.3,1-2.3,2.3c0,1.2,1,2.3,2.3,2.3H861c1.2,0,2.3-1,2.3-2.3
							c0-1.2-1-2.3-2.3-2.3H823.9z"/>
					</g>
					<g>
						<path fill="#414042" d="M843.7,339.8h-2.5c-3.8,0-7.2-2.6-8.3-6.2h-5.8c-2.7,0-5-2.2-5-5c0-2.7,2.2-5,5-5h30.6
							c2.7,0,5,2.2,5,5c0,2.7-2.2,5-5,5h-5.8C850.9,337.2,847.5,339.8,843.7,339.8z M827.1,325.2c-1.9,0-3.4,1.5-3.4,3.4
							c0,1.9,1.5,3.4,3.4,3.4h6.5c0.4,0,0.7,0.3,0.8,0.6c0.7,3.2,3.6,5.6,6.9,5.6h2.5c3.3,0,6.2-2.3,6.9-5.6
							c0.1-0.4,0.4-0.6,0.8-0.6h6.5c1.9,0,3.4-1.5,3.4-3.4c0-1.9-1.5-3.4-3.4-3.4H827.1z"/>
					</g>
				</g>
				<g>
					<path fill="#414042" d="M847,315.5h-9.1c-0.4,0-0.8-0.4-0.8-0.8v-5.3c0-9.5-3-18.7-8.4-25.8c-0.6-0.8-1.2-1.5-1.7-2.1
						c-0.2-0.2-0.3-0.6-0.1-0.9c0.2-0.3,0.5-0.5,0.8-0.4c0,0,0.4,0.1,1.1,0.1c2.1,0,5.7-0.5,7.2-4c0.1-0.2,0.3-0.4,0.5-0.5
						c0.2-0.1,0.5,0,0.7,0.2c1.3,1.1,3.9,2.9,5.2,2.9c1.3,0,3.9-1.8,5.2-2.9c0.2-0.2,0.4-0.2,0.7-0.2c0.2,0.1,0.4,0.2,0.5,0.5
						c1.5,3.5,5.2,4,7.2,4c0.6,0,1.1-0.1,1.1-0.1c0.3-0.1,0.7,0.1,0.8,0.4c0.2,0.3,0.1,0.7-0.1,0.9c-0.6,0.6-1.1,1.3-1.7,2.1
						c-5.4,7.1-8.4,16.3-8.4,25.8v5.3C847.8,315.1,847.4,315.5,847,315.5z M838.7,313.9h7.5v-4.5c0-9.8,3.1-19.3,8.7-26.8
						c0.2-0.3,0.4-0.6,0.6-0.8c-2-0.1-5.7-0.7-7.7-4.1c-1.3,1-3.7,2.6-5.5,2.6s-4.2-1.7-5.5-2.6c-2,3.3-5.6,4-7.7,4.1
						c0.2,0.3,0.4,0.5,0.6,0.8c5.6,7.4,8.7,16.9,8.7,26.8V313.9z"/>
				</g>
			</g>
			<g>
				<g>
					<path fill="#414042" d="M842.4,222.1c-0.9,0-1.6-0.7-1.6-1.6v-19.7c0-0.9,0.7-1.6,1.6-1.6s1.6,0.7,1.6,1.6v19.7
						C844,221.4,843.3,222.1,842.4,222.1z"/>
				</g>
			</g>
			<g>
				<g>
					<path fill="#414042" d="M795.9,268.6h-19.7c-0.9,0-1.6-0.7-1.6-1.6c0-0.9,0.7-1.6,1.6-1.6h19.7c0.9,0,1.6,0.7,1.6,1.6
						C797.5,267.9,796.8,268.6,795.9,268.6z"/>
				</g>
				<g>
					<path fill="#414042" d="M908.6,268.6H889c-0.9,0-1.6-0.7-1.6-1.6c0-0.9,0.7-1.6,1.6-1.6h19.7c0.9,0,1.6,0.7,1.6,1.6
						C910.2,267.9,909.5,268.6,908.6,268.6z"/>
				</g>
			</g>
			<g>
				<g>
					<path fill="#414042" d="M875.3,235.7c-0.4,0-0.8-0.2-1.1-0.5c-0.6-0.6-0.6-1.6,0-2.2l13.9-13.9c0.6-0.6,1.6-0.6,2.2,0
						c0.6,0.6,0.6,1.6,0,2.2l-13.9,13.9C876.2,235.5,875.8,235.7,875.3,235.7z"/>
				</g>
			</g>
			<g>
				<g>
					<path fill="#414042" d="M809.5,235.7c-0.4,0-0.8-0.2-1.1-0.5l-13.9-13.9c-0.6-0.6-0.6-1.6,0-2.2c0.6-0.6,1.6-0.6,2.2,0
						l13.9,13.9c0.6,0.6,0.6,1.6,0,2.2C810.4,235.5,809.9,235.7,809.5,235.7z"/>
				</g>
			</g>
		</g>
		<g>
			<g>
				<path fill="#B0CDE8" d="M885.2,687.7h-232c-2.7,0-4.9-2.2-4.9-4.9v-48c0-2.7,2.2-4.9,4.9-4.9h232c2.7,0,4.9,2.2,4.9,4.9v48
					C890.1,685.5,887.9,687.7,885.2,687.7z"/>
			</g>
			<g>
				<path fill="#A3C7E2" d="M648.4,658.8v24c0,2.7,2.2,4.9,4.9,4.9h232c2.7,0,4.9-2.2,4.9-4.9v-24H648.4z"/>
			</g>
			<g>
				<g>
					<path fill="#EA5F57" d="M672.3,642.9c-1.3-0.9-3.2,0.1-3.2,1.7v14.2V673c0,1.6,1.8,2.6,3.2,1.7l20.9-14.2
						c1.2-0.8,1.2-2.5,0-3.3L672.3,642.9z"/>
				</g>
				<g>
					<g>
						<path fill="#DB514D" d="M672.3,674.7l20.9-14.2c1.2-0.8,1.2-2.5,0-3.3l-2.9-2l-15.9,10.5c-1.5,1-3.5,1-5.1,0.1l-0.2-0.1v7.4
							C669.2,674.7,671,675.6,672.3,674.7z"/>
					</g>
					<g>
						<path fill="#1D353F" d="M719.5,662c0,1.7-0.6,3.1-1.9,4.1c-1.3,1-3,1.5-5.2,1.5c-2.1,0-3.9-0.4-5.5-1.2v-3.8
							c1.3,0.6,2.4,1,3.3,1.2c0.9,0.2,1.7,0.4,2.5,0.4c0.9,0,1.6-0.2,2.1-0.5c0.5-0.3,0.7-0.9,0.7-1.5c0-0.4-0.1-0.7-0.3-1
							c-0.2-0.3-0.5-0.6-0.9-0.9c-0.4-0.3-1.2-0.7-2.5-1.3c-1.2-0.6-2.1-1.1-2.7-1.6c-0.6-0.5-1.1-1.1-1.4-1.8
							c-0.4-0.7-0.5-1.5-0.5-2.4c0-1.7,0.6-3,1.7-4c1.2-1,2.8-1.5,4.8-1.5c1,0,2,0.1,2.9,0.4c0.9,0.2,1.9,0.6,2.9,1l-1.3,3.2
							c-1-0.4-1.9-0.7-2.6-0.9c-0.7-0.2-1.3-0.2-2-0.2c-0.8,0-1.4,0.2-1.8,0.5c-0.4,0.4-0.6,0.8-0.6,1.4c0,0.4,0.1,0.7,0.3,0.9
							s0.4,0.5,0.8,0.8c0.4,0.3,1.2,0.7,2.6,1.4c1.8,0.9,3,1.7,3.7,2.6C719.1,659.7,719.5,660.8,719.5,662z"/>
						<path fill="#1D353F" d="M741.4,648.1v12.5c0,1.4-0.3,2.7-1,3.7c-0.6,1.1-1.6,1.9-2.8,2.5c-1.2,0.6-2.6,0.9-4.3,0.9
							c-2.5,0-4.4-0.6-5.8-1.9c-1.4-1.3-2.1-3-2.1-5.2v-12.4h4.1v11.8c0,1.5,0.3,2.6,0.9,3.3c0.6,0.7,1.6,1,3,1c1.3,0,2.3-0.4,2.9-1
							c0.6-0.7,0.9-1.8,0.9-3.3v-11.8H741.4z"/>
						<path fill="#1D353F" d="M748.8,648.1h6c2.7,0,4.7,0.4,6,1.2c1.2,0.8,1.9,2,1.9,3.7c0,1.2-0.3,2.1-0.8,2.8
							c-0.5,0.7-1.3,1.2-2.2,1.3v0.1c1.2,0.3,2.1,0.8,2.6,1.5c0.5,0.7,0.8,1.7,0.8,3c0,1.8-0.6,3.1-1.9,4.1c-1.3,1-3,1.5-5.2,1.5
							h-7.2V648.1z M752.9,655.7h2.4c1.1,0,1.9-0.2,2.4-0.5c0.5-0.3,0.7-0.9,0.7-1.7c0-0.7-0.3-1.3-0.8-1.6
							c-0.5-0.3-1.4-0.5-2.6-0.5h-2.2V655.7z M752.9,659v5h2.7c1.1,0,2-0.2,2.5-0.6s0.8-1.1,0.8-2c0-1.6-1.1-2.4-3.4-2.4H752.9z"/>
						<path fill="#1D353F" d="M781,662c0,1.7-0.6,3.1-1.9,4.1c-1.3,1-3,1.5-5.2,1.5c-2.1,0-3.9-0.4-5.5-1.2v-3.8
							c1.3,0.6,2.4,1,3.3,1.2c0.9,0.2,1.7,0.4,2.5,0.4c0.9,0,1.6-0.2,2.1-0.5c0.5-0.3,0.7-0.9,0.7-1.5c0-0.4-0.1-0.7-0.3-1
							c-0.2-0.3-0.5-0.6-0.9-0.9c-0.4-0.3-1.2-0.7-2.5-1.3c-1.2-0.6-2.1-1.1-2.7-1.6c-0.6-0.5-1.1-1.1-1.4-1.8
							c-0.4-0.7-0.5-1.5-0.5-2.4c0-1.7,0.6-3,1.7-4c1.2-1,2.8-1.5,4.8-1.5c1,0,2,0.1,2.9,0.4c0.9,0.2,1.9,0.6,2.9,1l-1.3,3.2
							c-1-0.4-1.9-0.7-2.6-0.9c-0.7-0.2-1.3-0.2-2-0.2c-0.8,0-1.4,0.2-1.8,0.5c-0.4,0.4-0.6,0.8-0.6,1.4c0,0.4,0.1,0.7,0.3,0.9
							c0.2,0.3,0.4,0.5,0.8,0.8c0.4,0.3,1.2,0.7,2.6,1.4c1.8,0.9,3,1.7,3.7,2.6C780.7,659.7,781,660.8,781,662z"/>
						<path fill="#1D353F" d="M795.4,651.2c-1.5,0-2.7,0.6-3.6,1.7c-0.8,1.2-1.3,2.8-1.3,4.8c0,4.3,1.6,6.5,4.8,6.5
							c1.4,0,3-0.3,4.9-1v3.4c-1.6,0.7-3.4,1-5.3,1c-2.8,0-5-0.9-6.4-2.6c-1.5-1.7-2.2-4.1-2.2-7.3c0-2,0.4-3.8,1.1-5.3
							c0.7-1.5,1.8-2.7,3.1-3.5s3-1.2,4.8-1.2c1.9,0,3.8,0.5,5.6,1.4l-1.3,3.3c-0.7-0.3-1.4-0.6-2.2-0.9
							C796.9,651.4,796.1,651.2,795.4,651.2z"/>
						<path fill="#1D353F" d="M811.2,660v7.4h-4.1v-19.3h5.6c2.6,0,4.6,0.5,5.8,1.4c1.3,1,1.9,2.4,1.9,4.3c0,1.1-0.3,2.1-0.9,3
							c-0.6,0.9-1.5,1.6-2.7,2.1c2.9,4.3,4.8,7.1,5.7,8.4H818l-4.6-7.4H811.2z M811.2,656.7h1.3c1.3,0,2.2-0.2,2.9-0.6
							c0.6-0.4,0.9-1.1,0.9-2c0-0.9-0.3-1.6-0.9-2c-0.6-0.4-1.6-0.6-2.9-0.6h-1.2V656.7z"/>
						<path fill="#1D353F" d="M827.7,667.4v-19.3h4.1v19.3H827.7z"/>
						<path fill="#1D353F" d="M839.3,648.1h6c2.7,0,4.7,0.4,6,1.2c1.2,0.8,1.9,2,1.9,3.7c0,1.2-0.3,2.1-0.8,2.8
							c-0.5,0.7-1.3,1.2-2.2,1.3v0.1c1.2,0.3,2.1,0.8,2.6,1.5c0.5,0.7,0.8,1.7,0.8,3c0,1.8-0.6,3.1-1.9,4.1c-1.3,1-3,1.5-5.2,1.5
							h-7.2V648.1z M843.4,655.7h2.4c1.1,0,1.9-0.2,2.4-0.5c0.5-0.3,0.7-0.9,0.7-1.7c0-0.7-0.3-1.3-0.8-1.6
							c-0.5-0.3-1.4-0.5-2.6-0.5h-2.2V655.7z M843.4,659v5h2.7c1.1,0,2-0.2,2.5-0.6s0.8-1.1,0.8-2c0-1.6-1.1-2.4-3.4-2.4H843.4z"/>
						<path fill="#1D353F" d="M871.3,667.4h-11.1v-19.3h11.1v3.4h-7v4.2h6.5v3.4h-6.5v5h7V667.4z"/>
					</g>
				</g>
			</g>
			<g>
				<path fill="#414042" d="M885.2,688.5h-232c-3.1,0-5.7-2.5-5.7-5.7v-48c0-3.1,2.5-5.7,5.7-5.7h232c3.1,0,5.7,2.5,5.7,5.7v48
					C890.9,685.9,888.3,688.5,885.2,688.5z M653.2,630.8c-2.2,0-4.1,1.8-4.1,4.1v48c0,2.2,1.8,4.1,4.1,4.1h232
					c2.2,0,4.1-1.8,4.1-4.1v-48c0-2.2-1.8-4.1-4.1-4.1H653.2z"/>
			</g>
			<g>
				<g>
					<path fill="#414042" d="M671.2,675.9L671.2,675.9c-1.6,0-2.8-1.3-2.8-2.8v-28.4c0-1.6,1.3-2.8,2.8-2.8c0.6,0,1.1,0.2,1.6,0.5
						l20.9,14.2c0.8,0.5,1.2,1.4,1.2,2.3c0,0.9-0.5,1.8-1.2,2.3l-20.9,14.2C672.3,675.7,671.7,675.9,671.2,675.9z M671.2,643.4
						c-0.6,0-1.2,0.5-1.2,1.2V673c0,0.8,0.6,1.2,1.2,1.2l0,0c0.2,0,0.5-0.1,0.7-0.2l20.9-14.2c0.3-0.2,0.5-0.6,0.5-1
						c0-0.4-0.2-0.8-0.5-1l-20.9-14.2C671.7,643.5,671.4,643.4,671.2,643.4z"/>
				</g>
			</g>
		</g>
		<g>
			<g>
				<polygon fill="#FFFFFF" points="822,665.7 822,665.7 821.5,698.5 831.5,692.7 842.2,711.4 846.7,708.8 851.2,706.2 840.5,687.6 
					850.6,681.8 				"/>
			</g>
			<g>
				<path fill="#414042" d="M842.2,712.2c-0.1,0-0.1,0-0.2,0c-0.2-0.1-0.4-0.2-0.5-0.4l-10.3-18l-9.4,5.4c-0.2,0.1-0.6,0.1-0.8,0
					c-0.2-0.1-0.4-0.4-0.4-0.7l0.5-32.8c0-0.3,0.2-0.5,0.4-0.7c0.2-0.1,0.5-0.1,0.8,0l28.6,16.1c0.2,0.1,0.4,0.4,0.4,0.7
					c0,0.3-0.2,0.5-0.4,0.7l-9.4,5.4l10.3,18c0.1,0.2,0.1,0.4,0.1,0.6c-0.1,0.2-0.2,0.4-0.4,0.5l-9,5.1
					C842.5,712.1,842.4,712.2,842.2,712.2z M831.5,691.9c0.1,0,0.1,0,0.2,0c0.2,0.1,0.4,0.2,0.5,0.4l10.3,18l7.6-4.4l-10.3-18
					c-0.2-0.4-0.1-0.9,0.3-1.1l8.9-5.1L822.7,667l-0.5,30.1l8.9-5.1C831.3,692,831.4,691.9,831.5,691.9z"/>
			</g>
		</g>
		<g>
			<g>
				<path fill="#7CB0D8" d="M443,579.1l3-2.2c3.2-2.4,3.9-6.9,1.6-10.1l-53.7-73.3c-2.4-3.2-6.9-3.9-10.1-1.6l-3,2.2
					c-3.2,2.4-3.9,6.9-1.6,10.1l53.7,73.3C435.2,580.8,439.8,581.5,443,579.1z"/>
			</g>
			<g>
				<path fill="#414042" d="M438.7,581.3L438.7,581.3c-2.6,0-5-1.2-6.5-3.3l-53.7-73.3c-2.6-3.6-1.8-8.6,1.7-11.2l3-2.2
					c1.4-1,3-1.6,4.7-1.6c2.6,0,5,1.2,6.5,3.3l53.7,73.3c2.6,3.6,1.8,8.6-1.7,11.2l-3,2.2C442.1,580.8,440.4,581.3,438.7,581.3z
					 M388,491.3c-1.4,0-2.7,0.4-3.8,1.2l-3,2.2c-2.9,2.1-3.5,6.1-1.4,9l53.7,73.3c1.2,1.7,3.2,2.6,5.2,2.6l0,0
					c1.4,0,2.7-0.4,3.8-1.2l3-2.2c2.9-2.1,3.5-6.1,1.4-9l-53.7-73.3C392,492.3,390.1,491.3,388,491.3z"/>
			</g>
			<g>
				<circle fill="#7CB0D8" cx="374.1" cy="481.8" r="49.5"/>
			</g>
			<g>
				<circle fill="#B0CDE8" cx="374.1" cy="481.8" r="37.9"/>
			</g>
			<g>
				<path fill="#7CB0D8" d="M403.1,537.6l15.3-11.2c2.3-1.7,2.8-4.8,1.1-7.1l-1.5-2.1c-1.7-2.3-4.8-2.8-7.1-1.1l-15.3,11.2
					c-2.3,1.7-2.8,4.8-1.1,7.1l1.5,2.1C397.7,538.8,400.9,539.3,403.1,537.6z"/>
			</g>
			<g>
				<path fill="#414042" d="M374.1,532.1C374.1,532.1,374.1,532.1,374.1,532.1c-16,0-31.2-7.7-40.6-20.6
					c-16.4-22.4-11.5-53.9,10.9-70.2c8.7-6.4,18.9-9.7,29.6-9.7c16,0,31.2,7.7,40.6,20.6c16.4,22.4,11.5,53.9-10.9,70.2
					C395.1,528.7,384.8,532.1,374.1,532.1z M374,433.1c-10.4,0-20.3,3.3-28.7,9.4c-21.7,15.9-26.4,46.4-10.5,68
					c9.1,12.5,23.8,19.9,39.3,19.9c0,0,0,0,0,0c10.4,0,20.3-3.3,28.7-9.4c21.7-15.9,26.4-46.4,10.5-68
					C404.2,440.6,389.5,433.1,374,433.1z"/>
			</g>
			<g>
				<path fill="#414042" d="M374.1,520.6C374.1,520.6,374.1,520.6,374.1,520.6c-12.3,0-24-5.9-31.3-15.9
					c-12.6-17.2-8.9-41.5,8.4-54.1c6.7-4.9,14.6-7.5,22.9-7.5c12.3,0,24,5.9,31.3,15.9c6.1,8.3,8.6,18.6,7,28.8
					c-1.6,10.2-7.1,19.2-15.4,25.3C390.2,518,382.3,520.6,374.1,520.6z M374,444.7c-7.9,0-15.5,2.5-21.9,7.2
					c-16.5,12.1-20.1,35.4-8,51.9c7,9.5,18.2,15.2,30,15.2c0,0,0,0,0,0c7.9,0,15.5-2.5,21.9-7.2c8-5.9,13.3-14.5,14.8-24.3
					c1.5-9.8-0.9-19.6-6.7-27.6C397.1,450.3,385.8,444.7,374,444.7z"/>
			</g>
			<g>
				<path fill="#414042" d="M400.1,539.4L400.1,539.4c-1.9,0-3.6-0.9-4.7-2.4l-1.5-2.1c-1.9-2.6-1.3-6.3,1.3-8.2l15.3-11.2
					c1-0.7,2.2-1.1,3.5-1.1c1.9,0,3.6,0.9,4.7,2.4l1.5,2.1c1.9,2.6,1.3,6.3-1.3,8.2l-15.3,11.2C402.6,539,401.4,539.4,400.1,539.4z
					 M413.9,515.9c-0.9,0-1.8,0.3-2.5,0.8L396.1,528c-1.9,1.4-2.3,4.1-0.9,6l1.5,2.1c0.8,1.1,2.1,1.8,3.5,1.8l0,0
					c0.9,0,1.8-0.3,2.5-0.8l15.3-11.2c1.9-1.4,2.3-4.1,0.9-6l-1.5-2.1C416.6,516.6,415.3,515.9,413.9,515.9z"/>
			</g>
		</g>
		<g>
			<g>
				<circle fill="#FFDA00" cx="386.6" cy="393.8" r="12.2"/>
			</g>
			<g>
				<path fill="#414042" d="M386.6,406.8c-6.4,0-11.9-4.8-12.9-11.1c-0.5-3.4,0.4-6.9,2.4-9.7c2.1-2.8,5.1-4.6,8.6-5.1
					c0.6-0.1,1.3-0.1,1.9-0.1c6.4,0,11.9,4.8,12.9,11.1c0.5,3.4-0.4,6.9-2.4,9.7c-2.1,2.8-5.1,4.6-8.6,5.1
					C387.8,406.8,387.2,406.8,386.6,406.8z M386.6,382.4c-0.6,0-1.1,0-1.7,0.1c-6.2,0.9-10.6,6.7-9.7,13c0.8,5.6,5.7,9.8,11.3,9.8
					c0.6,0,1.1,0,1.7-0.1c3-0.4,5.7-2,7.5-4.5c1.8-2.4,2.6-5.5,2.1-8.5C397.1,386.6,392.2,382.4,386.6,382.4z"/>
			</g>
			<g>
				<path fill="#FFDA00" d="M373,300.9c-6.3,0.9-10.7,6.8-9.7,13.1c0.9,6.3,6.8,10.7,13.1,9.7c6.3-0.9,10.7-6.8,9.7-13.1
					C385.1,304.3,379.3,300,373,300.9z M375.6,318.9c-3.6,0.5-7-2-7.6-5.6c-0.5-3.6,2-7,5.6-7.6c3.6-0.5,7,2,7.6,5.6
					C381.8,315,379.2,318.3,375.6,318.9z"/>
			</g>
			<g>
				<path fill="#414042" d="M374.6,324.6L374.6,324.6c-6.1,0-11.3-4.5-12.2-10.5c-1-6.7,3.7-13,10.4-14c0.6-0.1,1.2-0.1,1.8-0.1
					c6.1,0,11.3,4.5,12.2,10.5c1,6.7-3.7,13-10.4,14C375.8,324.6,375.2,324.6,374.6,324.6z M374.7,301.5c-0.5,0-1,0-1.6,0.1
					c-5.9,0.9-9.9,6.3-9.1,12.2c0.8,5.2,5.3,9.2,10.6,9.2c0,0,0,0,0,0c0.5,0,1,0,1.6-0.1c5.9-0.9,9.9-6.3,9.1-12.2
					C384.5,305.5,379.9,301.5,374.7,301.5z M374.6,319.7c-3.7,0-6.8-2.7-7.4-6.4c-0.6-4.1,2.2-7.9,6.3-8.5c4.1-0.6,7.9,2.3,8.5,6.3
					c0.3,2-0.2,3.9-1.4,5.5s-2.9,2.6-4.9,2.9C375.4,319.7,375,319.7,374.6,319.7z M374.6,306.4c-0.3,0-0.6,0-0.9,0.1
					c-3.2,0.5-5.4,3.5-5,6.7c0.5,3.1,3.4,5.4,6.7,5c1.6-0.2,2.9-1,3.9-2.3c0.9-1.3,1.3-2.8,1.1-4.4
					C380,308.6,377.5,306.4,374.6,306.4z"/>
			</g>
			<g>
				<path fill="#FFDA00" d="M408,340.8c-2.2-10.6-7.8-16.7-13.7-20.2c-11.7-6.9-26.8-4.6-36,5.3c-4.7,5.1-8.3,12.5-7.4,23.3
					c1.9,21.3-0.3,30.9-5.2,37.5c-2.8,3.9-4.2,8.6-3.5,13.4l0,0.2l88.6-13l0-0.2c-0.7-4.8-3.3-8.9-7.2-11.8
					C417.1,370.3,412.3,361.8,408,340.8z"/>
			</g>
			<g>
				<path fill="#414042" d="M342.3,401.1c-0.2,0-0.3-0.1-0.5-0.2c-0.2-0.1-0.3-0.3-0.3-0.5l0-0.2c-0.7-4.9,0.6-9.8,3.6-14
					c5.2-7.1,6.7-17.8,5-37c-0.8-9.6,1.7-17.6,7.6-23.9c5.6-6,13.6-9.5,21.9-9.5c5.3,0,10.5,1.4,15,4.1c7.4,4.4,12.2,11.3,14.1,20.7
					c3.9,18.8,8.3,28.6,15.4,34c4.1,3.1,6.8,7.5,7.5,12.4l0,0.2c0,0.2,0,0.4-0.1,0.6c-0.1,0.2-0.3,0.3-0.5,0.3l-88.6,13
					C342.3,401.1,342.3,401.1,342.3,401.1z M379.6,317.4c-7.9,0-15.4,3.3-20.8,9c-5.5,6-8,13.6-7.2,22.7c1.7,19.8,0.2,30.5-5.3,38
					c-2.7,3.6-3.9,8-3.4,12.3l87-12.7c-0.8-4.2-3.2-8-6.8-10.8c-7.5-5.6-12-15.4-16-34.9c-1.8-8.9-6.3-15.6-13.4-19.7
					C389.5,318.8,384.6,317.4,379.6,317.4z"/>
			</g>
		</g>
		<g>
			<g>
				<circle fill="#B0CDE8" cx="543" cy="423.2" r="39.1"/>
			</g>
			<g>
				<path fill="#414042" d="M543,463.1c-22,0-39.9-17.9-39.9-39.9c0-22,17.9-39.9,39.9-39.9c22,0,39.9,17.9,39.9,39.9
					C582.9,445.2,565,463.1,543,463.1z M543,384.8c-21.1,0-38.4,17.2-38.4,38.4c0,21.1,17.2,38.4,38.4,38.4s38.4-17.2,38.4-38.4
					C581.3,402,564.1,384.8,543,384.8z"/>
			</g>
			<g>
				<g>
					<polygon fill="#FFDA00" points="546,445.3 520.7,422 528.5,413.6 545.8,429.5 599.3,377 607.3,385.2 					"/>
				</g>
			</g>
			<g>
				<g>
					<path fill="#414042" d="M546,446.1c-0.2,0-0.4-0.1-0.5-0.2l-25.3-23.3c-0.3-0.3-0.3-0.8,0-1.1l7.7-8.4c0.1-0.2,0.3-0.2,0.6-0.3
						c0.2,0,0.4,0.1,0.6,0.2l16.8,15.4l53-52c0.2-0.1,0.4-0.2,0.6-0.2c0.2,0,0.4,0.1,0.6,0.2l8,8.2c0.3,0.3,0.3,0.8,0,1.1
						l-61.3,60.1C546.4,446,546.2,446.1,546,446.1z M521.9,421.9l24.2,22.3l60.2-59l-6.9-7l-53,51.9c-0.3,0.3-0.8,0.3-1.1,0
						l-16.7-15.4L521.9,421.9z"/>
				</g>
			</g>
		</g>
		<g>
			<g>
				<path fill="#E6E7E8" d="M885,789.7h-63.5l0,0c3.8-9.8,13.3-16.3,23.8-16.3h15.9C871.7,773.4,881.2,779.9,885,789.7L885,789.7z"
					/>
			</g>
			<g>
				<path fill="#414042" d="M885,790.5C885,790.5,885,790.5,885,790.5h-63.6c-0.3,0-0.5-0.1-0.7-0.3c-0.1-0.2-0.2-0.5-0.1-0.7
					c4-10.2,13.6-16.8,24.6-16.8h15.9c10.9,0,20.5,6.5,24.5,16.6c0.1,0.1,0.2,0.3,0.2,0.5C885.8,790.2,885.5,790.5,885,790.5z
					 M822.6,788.9h61.2c-4-9-12.7-14.7-22.6-14.7h-15.9C835.4,774.2,826.6,779.9,822.6,788.9z"/>
			</g>
		</g>
		<g>
			<path fill="#414042" d="M1043.3,791.3H283.1c-0.9,0-1.6-0.7-1.6-1.6c0-0.9,0.7-1.6,1.6-1.6h760.3c0.9,0,1.6,0.7,1.6,1.6
				C1044.9,790.6,1044.2,791.3,1043.3,791.3z"/>
		</g>
	</g>
</g>
</svg>
